<?xml version="1.0" encoding="utf-8"?>
<!-- Generator: Adobe Adobe Illustrator 24.2.0, SVG Export Plug-In . SVG Version: 6.00 Build 0)  -->
<svg version="1.1" id="Layer_2" xmlns="http://www.w3.org/2000/svg" xmlns:xlink="http://www.w3.org/1999/xlink" x="0px" y="0px"
	 viewBox="0 0 595.28 841.89" style="enable-background:new 0 0 595.28 841.89;" xml:space="preserve">
<style type="text/css">
	.st0{fill:none;stroke:#000000;stroke-linecap:round;stroke-miterlimit:10;}
	.st1{fill:#E25C14;stroke:#000000;stroke-linecap:round;stroke-miterlimit:10;}
	.st2{fill:#FF2A0C;stroke:#000000;stroke-linecap:round;stroke-miterlimit:10;}
	.st3{fill:#E25C11;stroke:#000000;stroke-linecap:round;stroke-miterlimit:10;}
	.st4{fill:#A1B6BD;stroke:#000000;stroke-linecap:round;stroke-miterlimit:10;}
	.st5{stroke:#000000;stroke-linecap:round;stroke-miterlimit:10;}
	.st6{fill:none;stroke:#000000;stroke-width:1.2777;stroke-linecap:round;stroke-miterlimit:10;}
	.st7{fill:none;stroke:#000000;stroke-width:1.4266;stroke-linecap:round;stroke-miterlimit:10;}
	.st8{fill:none;stroke:#000000;stroke-width:1.3052;stroke-linecap:round;stroke-miterlimit:10;}
	.st9{fill:none;stroke:#000000;stroke-width:1.2755;stroke-linecap:round;stroke-miterlimit:10;}
	.st10{fill:none;stroke:#000000;stroke-width:1.2534;stroke-linecap:round;stroke-miterlimit:10;}
</style>
<path class="st0" d="M160.77,473.91c2.76,11.78,6.17,23.51,12.41,33.83c5.79,9.55,13.64,17.36,22.51,24.13
	c10.31,7.87,21.99,14.35,33.39,20.56c15.77,8.61,32.59,17.46,50.54,16.61c13.72-0.65,26.67-7.05,37.4-15.63
	c10.74-8.58,19.54-19.28,28.27-29.89c7.81-9.51,15.73-19.2,20.44-30.57c3.63-8.75,5.22-18.2,6.61-27.57
	c1.71-11.54,3.16-23.12,4.33-34.73v-0.01"/>
<path class="st0" d="M380.26,373.46c-0.13,5.76-0.34,11.52-0.61,17.27"/>
<path class="st0" d="M152.33,429.66L152.33,429.66c-3.21-21.29-5.19-42.75-5.95-64.26"/>
<path class="st0" d="M239.98,437.59c-0.89,2.87-1.78,5.79-1.79,8.8c-0.02,3,0.95,6.15,3.23,8.11c2.5,2.15,6.03,2.51,9.32,2.77"/>
<path class="st0" d="M255.98,452.03c-2.17-0.4-4.34-0.81-6.52-1.21c-0.86-0.16-1.97-0.72-1.69-1.54c0.2-0.6,1-0.7,1.63-0.65
	C251.97,448.84,254.46,449.93,255.98,452.03z"/>
<path class="st0" d="M278.41,450.86c1.48-1.68,3.83-2.26,6.03-2.67c0.76-0.14,1.55-0.28,2.31-0.1c0.75,0.18,1.46,0.77,1.54,1.54
	c0.08,0.77-0.74,1.56-1.46,1.28c-0.58-0.23-0.82-0.96-1.37-1.26c-0.47-0.26-1.06-0.13-1.58,0
	C282.01,450.13,280.15,450.6,278.41,450.86z"/>
<path class="st0" d="M258.72,455.55c1.99,2.23,5.06,3.44,8.03,3.17c2.97-0.27,5.78-2.01,7.33-4.56"/>
<path class="st0" d="M283.54,454.94c4.5,0.32,9.19-1.66,11.81-5.33s2.88-8.98,0.33-12.71"/>
<path class="st0" d="M272.67,383.05c0.33,14.27,2.89,28.48,7.55,41.97"/>
<path class="st1" d="M320.02,488.53c3.67-0.42-40-6.32-44.96-4.46c-11.82,4.43-10.73-0.28-16.34,1.6
	c-11.43,3.83-34.42,12.12-32.13,11.74c16.42-2.72,25.32-0.65,38.05-1.61c4.47,1.21,9.44,0.45,12.87-2.13
	C291.64,492.91,314.68,489.14,320.02,488.53z"/>
<path class="st2" d="M229.34,497.41"/>
<path class="st1" d="M227.37,496.91c12.57-1.07,25.21-1.37,37.66-0.96c4.34,1.18,9.18,0.32,12.77-2.4c0.03-0.01,0.06-0.02,0.09-0.03
	"/>
<path class="st3" d="M256.88,513.85c6.24,1.86,12.85-2.21,19.31-1.43c8.55,0.91,16.77-2.08,23.6-6.67
	c6.83-4.59,12.49-10.7,18.02-16.79c-13.34,2.32-26.63,3.9-40.07,4.59c-3.55,2.72-8.41,3.64-12.86,2.36
	c-5.06,0.25-10.14,0.28-15.16,0.02c-7.38-0.23-14.78,0.22-22.32,1.35c6.46,3.71,12.78,7.68,18.93,11.88
	C249.68,511.45,253.42,512.82,256.88,513.85z"/>
<path class="st3" d="M270.61,491.61"/>
<path class="st0" d="M216.32,345.66"/>
<path class="st0" d="M215.28,359.13c-12.69-2.8-25.93,2.27-33.82,12.81c16.79,8.56,30.02,6.29,51.7,2.06
	C233.91,373.85,221.25,361.78,215.28,359.13z"/>
<path class="st4" d="M215.44,359.3c-6.66-1.45-13.76-0.82-20.06,1.79c-0.99,4.11,0.99,8.53,4.18,11.3c1.93,1.68,4.38,2.88,6.94,2.89
	c3.58,0.01,6.9-2.41,8.56-5.59C216.72,366.51,216.88,362.71,215.44,359.3z"/>
<path class="st4" d="M326.37,353.58c-6.66-1.45-13.76-0.82-20.06,1.79c-0.99,4.11,0.99,8.53,4.18,11.3
	c1.93,1.68,4.38,2.88,6.94,2.89c3.58,0.01,6.9-2.41,8.56-5.59C327.65,360.8,327.81,357,326.37,353.58z"/>
<path class="st0" d="M207.95,297.04"/>
<path class="st0" d="M343.17,359.88c-3.46,0.18-6.54-1.97-9.62-3.56c-9.41-4.85-21.24-4.66-30.48,0.5
	c-4.65,4.22-14.47,14.96-12.59,15.11c5.6,0.47,6.97-0.87,13.29-0.65c6.32,0.22,18.2-0.39,24.4-1.64S340.47,365.29,343.17,359.88z"/>
<path class="st0" d="M229,324.66"/>
<path class="st0" d="M175.78,367.43c3.33,0.37,6.71,0.2,9.98-0.5"/>
<path class="st0" d="M178.26,363.94c3.59,0.4,7.21,0.46,10.81,0.15"/>
<path class="st0" d="M182.3,359.95c3.61,1.06,7.34,1.69,11.1,1.86"/>
<path class="st0" d="M186.73,358.48c2.51,1.06,5.14,1.82,7.82,2.27"/>
<path class="st0" d="M191.68,356.06c1.27,1.87,3.13,3.34,5.24,4.13"/>
<path class="st0" d="M194.56,354.41c1.38,2.12,3.31,3.88,5.56,5.05"/>
<path class="st0" d="M197.96,353.53c1.04,2.03,2.55,3.82,4.37,5.18"/>
<path class="st0" d="M202.5,352.82c0.28,2.08,1,4.09,2.11,5.87"/>
<path class="st0" d="M206.03,353.57c0.31,1.56,0.63,3.11,0.94,4.67"/>
<path class="st0" d="M208.47,358.34c0.19-0.66,0.38-1.32,0.57-1.97"/>
<path class="st0" d="M210.84,358.27c1.41-1.23,2.47-2.84,3.05-4.62"/>
<path class="st0" d="M213.2,358.54c1.72-0.68,3.13-2.12,3.76-3.86"/>
<path class="st0" d="M215.74,359.27c2.2,0.34,4.55-0.52,6-2.21"/>
<path class="st0" d="M218.69,361.02c0.92,0.14,1.9-0.42,2.23-1.29"/>
<path class="st0" d="M220.65,362.11c0.57-0.18,1.12-0.46,1.59-0.83"/>
<path class="st0" d="M222.38,363.74c0.4-0.25,0.81-0.5,1.21-0.75"/>
<path class="st0" d="M193.11,376.37c-1.01,0.77-1.85,1.76-2.46,2.87"/>
<path class="st0" d="M195.91,377c-1.34,0.81-2.35,2.16-2.73,3.68"/>
<path class="st0" d="M198.12,377.42c-0.86,0.92-1.51,2.05-1.86,3.26"/>
<path class="st0" d="M200.14,377.61c-0.39,0.82-0.77,1.63-1.16,2.45"/>
<path class="st0" d="M202.4,377.9c-0.39,0.84-0.79,1.68-1.18,2.52"/>
<path class="st0" d="M204.59,378.15c0,0.54,0.01,1.09,0.01,1.63"/>
<path class="st0" d="M207.3,377.69c0.09,0.46,0.18,0.91,0.27,1.37"/>
<path class="st0" d="M210.61,377.62c0.19,0.59,0.28,1.21,0.27,1.83"/>
<path class="st0" d="M213.15,377.09c0.24,0.69,0.48,1.38,0.73,2.07"/>
<path class="st0" d="M215.89,377.21c1.02,0.23,1.79,1.3,1.66,2.34"/>
<circle class="st5" cx="206.03" cy="366.91" r="4.82"/>
<circle class="st5" cx="317.81" cy="360.88" r="4.82"/>
<line class="st0" x1="220.55" y1="3.69" x2="218.39" y2="3.26"/>
<path class="st0" d="M304.91,355.86c1.73-1.52,3.05-3.5,3.78-5.69"/>
<path class="st0" d="M308.49,354.54c2.09-1.31,3.77-3.27,4.75-5.54"/>
<path class="st0" d="M313.1,353.44c0.47-0.08,0.85-0.43,1.18-0.78c1.1-1.16,2.1-2.42,2.97-3.76"/>
<path class="st0" d="M317.18,352.77c1.91-1.1,3.47-2.78,4.42-4.77"/>
<path class="st0" d="M322.59,352.77c1.44-1.19,2.64-2.66,3.5-4.32"/>
<path class="st0" d="M325.71,353.3c1.65-0.98,3-2.46,3.83-4.19"/>
<path class="st0" d="M328.33,354.23c1.35-0.13,2.62-0.96,3.28-2.15"/>
<path class="st0" d="M331.51,355.4c1.98-0.03,3.94-0.7,5.52-1.88"/>
<path class="st0" d="M335.34,356.89c2.5,0.45,5.16-0.09,7.29-1.48"/>
<path class="st0" d="M339.86,359.37c2.14,0.05,4.29-0.88,5.73-2.47"/>
<path class="st0" d="M343.35,360.53c2.18,0.09,4.38-0.69,6.01-2.14"/>
<path class="st0" d="M302.67,357.07c0.36-0.86,0.72-1.71,1.08-2.57"/>
<path class="st0" d="M301.05,358.97c-0.49-0.7-0.99-1.41-1.48-2.11"/>
<path class="st0" d="M297.42,358.98c0.37,0.77,1.3,1.21,2.14,1.03"/>
<path class="st5" d="M157.99,356.5c4.94-7.29,10.56-15.09,19.04-17.47c4.64-1.3,13.29-3.11,18.1-2.85
	c11.33,0.6,14.63,1.44,23.78,2.22c11.88,1.02,27.61,11.01,21.35,13.37c-13.45,5.07-34.28-4.26-51.25-4.87
	C177.66,346.49,164.89,347.57,157.99,356.5z"/>
<path class="st5" d="M237.25,77.78"/>
<path class="st5" d="M292.96,337.13c-2.82,1.41-7.82,9.02-5.57,9.16c18.61,1.22,35.71-15.69,53.75-10.95
	c3.52,0.92,6.75,2.76,10.25,3.76c3.5,1.01,7.62,1.03,10.4-1.33c-9.98-7.56-22.47-11.76-34.99-11.78S303.02,332.09,292.96,337.13z"/>
<path class="st0" d="M318.68,433.05c0.92,9.08,6.3,17.6,14.11,22.33"/>
<path class="st0" d="M259.37,518.48c8.74-4.87,20.33,0.1,29.38-4.16"/>
<path class="st0" d="M186.26,244.61c-0.69,12.15-5.89,23.99-14.37,32.72s-20.16,14.28-32.29,15.32"/>
<path class="st0" d="M142.05,304.63c7.65,12.59,10.23,28.17,7.05,42.55"/>
<path class="st0" d="M145.44,297.29c6.72,6.03,11.96,13.7,15.13,22.16"/>
<path class="st0" d="M144.03,301.33c8.39,12.12,13.93,26.19,16.07,40.77"/>
<path class="st0" d="M148.48,295.15c3.92,0.69,7.57,2.83,10.08,5.92"/>
<path class="st0" d="M154.51,292.29c2.18,1.28,4.35,2.55,6.53,3.83"/>
<path class="st0" d="M194.18,249.08c3.01-7.63,6.64-15.02,10.83-22.07"/>
<path class="st0" d="M203.21,243.71c4.93-10.93,19.53-14.71,24.84-25.46"/>
<path class="st0" d="M213.04,241.42c9.44-6.51,18.88-13.02,28.32-19.53"/>
<path class="st0" d="M229.64,239.88c8.21-5.92,17.2-12.1,27.32-11.98"/>
<path class="st0" d="M241.48,240.35c5.3-3.57,11.05-6.48,17.07-8.65"/>
<path class="st0" d="M253.54,241.26c4.32-1.67,8.65-3.34,12.97-5.01"/>
<path class="st0" d="M265.86,243.37c4.65-2.91,9.81-5,15.17-6.15"/>
<path class="st0" d="M279.02,244.45c3.26-0.76,6.52-1.52,9.78-2.28"/>
<path class="st0" d="M182.77,236.59c-1.67,15.27-14.35,27.88-28.09,36.21c-7.54,4.56-15.58,8.25-23.48,12.15
	c-2.77,1.37-5.52,2.76-8.23,4.22c-3.67,1.99-7.26,4.11-10.7,6.48c-13.22,9.13-24.5,23.54-23.68,39.59c0.09,1.8,0.33,3.57,0.69,5.31
	c1.09,5.33,3.3,10.43,5.87,15.45c2.21,4.33,4.68,8.59,6.93,12.88c1.91,3.67,3.66,7.35,4.94,11.11c1.61,4.79,2.46,9.7,1.89,14.85
	c-0.49,4.45-2,8.56-4.12,12.44c-1.67,3.04-3.71,5.95-5.95,8.78c-2.5,3.16-5.23,6.23-7.94,9.29c-0.83,0.93-1.65,1.87-2.48,2.81
	c-7.74,8.89-14.65,17.95-14.4,29.28c0.15,6.73,2.88,12.76,6.52,18.49c3.32,5.22,7.41,10.19,10.99,15.18
	c7.51,10.45,13.09,25.31,5.35,35.6c-1.13-13.43-12.98-23.1-24.02-30.84c-2.05-1.44-4.15-2.91-6.21-4.45
	c-7.17-5.35-13.97-11.44-17.43-19.13c-0.56-1.23-1.03-2.5-1.4-3.81c-0.23-0.81-0.43-1.63-0.58-2.47c-0.42-2.33-0.52-4.64-0.33-6.92
	c0.88-11.18,8.32-21.65,15.56-30.74c0.85-1.07,1.72-2.16,2.57-3.26c5.18-6.63,10.22-13.78,12.7-21.45
	c1.31-4.03,1.91-8.21,1.46-12.53c-0.65-6.3-3.5-12.02-6.39-17.71c-1.08-2.12-2.16-4.24-3.14-6.39c-0.42-0.93-0.83-1.86-1.2-2.81
	c-11.09-27.51-3.75-61.17,16.5-82.63v-0.01c4.13-4.39,8.8-8.27,13.97-11.48c2.2-1.36,4.45-2.61,6.75-3.76
	c6.28-3.14,12.92-5.58,19.69-7.72c4.58-1.45,9.23-2.77,13.87-4.09c7.65-2.17,15.28-4.35,22.61-7.12c1.69-0.64,3.37-1.31,5.03-2.02
	C172.46,242.97,177.8,240.14,182.77,236.59z"/>
<path class="st0" d="M131.2,284.95c0.64,9.84,6.92,19.75,10.66,29.42c7.09,18.41,4.55,40.24-6.58,56.52
	c-0.42,0.61-0.85,1.22-1.28,1.81c-0.73,1.01-1.49,2-2.25,2.98c-2.96,3.78-6.06,7.45-8.53,11.56c-3.48,5.82-5.64,12.92-3.62,19.39
	c2.11,6.76,8.15,11.25,14.62,14.49h0.01c1.12,0.58,2.27,1.11,3.4,1.6c0.1,0.05,0.19,0.09,0.29,0.13c4.84,2.1,9.96,4.03,14.4,6.81
	h0.01c2.65,1.65,5.05,3.6,7.01,6.07c5.74,7.23,6.15,16.96,4.49,26.29c-0.45,2.61-1.08,5.18-1.79,7.66
	c-0.41,1.41-0.83,2.82-1.27,4.23c-1.08,3.46-2.21,6.93-3.16,10.42c0,0,0,0,0,0.01c-1.81,6.55-3,13.16-2.08,19.85
	c1.54,11.3,8.86,20.83,13.6,31.2c0.83,1.81,1.56,3.72,2.16,5.69c2.59,8.49,2.71,17.97-2.5,24.45"/>
<path class="st0" d="M167.96,565.32c2.05-6.91-4.22-14.65-11.03-18.19c-7.49-3.88-16.48-5.83-21.73-12.43
	c-5.62-7.06-5.06-17.12-3.33-25.97c0.97-4.96,2.21-10.01,2.7-15.02c0.39-3.95,0.3-7.86-0.76-11.69c-2.08-7.53-7.33-13.06-13.4-18.13
	c-4.05-3.4-8.46-6.59-12.54-10.05c-2.21-1.86-4.31-3.8-6.21-5.9c-5.68-6.29-9.32-14.25-10.76-22.59
	c-1.71-10.02-0.26-20.6,4.63-29.53c3.13-5.72,7.45-10.68,11.49-15.83c2.6-3.34,5.09-6.75,7.05-10.49c2.15-4.1,3.6-8.42,4.56-12.9
	v-0.01c1.51-7.02,1.82-14.41,1.76-21.89v-0.01c-0.04-6.37-0.35-12.79-0.4-19.12c-0.07-9.19,0.39-18.17,2.98-26.4"/>
<path class="st0" d="M68.47,364.19c0,0.01,0,0.01,0,0.01c-1.98,3.07-3.88,6.19-5.68,9.36c-12.38,21.76-20.31,45.96-18.1,70.62
	c0.45,4.98,1.3,9.95,2.22,14.91c0,0.01,0,0.01,0,0.01c0.51,2.8,1.04,5.58,1.53,8.38v0.01c0.28,1.6,0.54,3.2,0.78,4.8
	c1.04,7.01,1.56,14.02,0.55,21.04c-1.64,11.41-7.17,21.74-11.9,32.32c-2.63,5.87-5.02,11.83-6.36,18.08
	c-4.33,20.18,3.03,41.79,16.56,57.39c2.27,2.62,4.7,5.08,7.26,7.39c10.18,9.19,22.48,16,35.48,20.76"/>
<path class="st0" d="M91.64,628.51c-14.29-8.78-22.72-27.14-18.64-43.6c1.63-6.58,4.91-12.59,7.72-18.77
	c0.62-1.36,1.22-2.73,1.77-4.12c2.78-6.98,4.35-15.02,1.82-21.97c-0.25-0.71-0.55-1.4-0.89-2.08c-4.81-9.53-17.1-13.79-21.12-23.68
	c-3.07-7.55-0.32-15.87,4.35-22.87c1.31-1.95,2.76-3.8,4.28-5.5c1.21-1.35,2.47-2.67,3.75-3.98c1.96-2.01,3.95-3.98,5.86-6.01
	c1.41-1.48,2.76-2.98,4.02-4.54c1.37-1.68,2.63-3.42,3.73-5.26c0.84-1.4,1.58-2.85,2.2-4.38c4.35-10.65,2.07-22.85-2.07-33.59
	c-0.05-0.14-0.1-0.27-0.15-0.4c-1.22-3.13-2.59-6.21-4-9.27c-2.25-4.93-4.59-9.82-6.53-14.84v-0.01c-1.04-2.67-1.97-5.37-2.71-8.14
	c-1.94-7.21-2.56-14.76-2.22-22.1"/>
<path class="st0" d="M166.89,245.37c-0.56-2.92-2.08-5.83-4.18-8.06c-0.59-0.64-1.24-1.21-1.92-1.72c-2.75-2.06-5.88-3.4-9.15-4.48
	c-3.74-1.26-7.66-2.19-11.37-3.53c-1.21-0.43-2.4-0.91-3.57-1.44c-6.76-3.04-12.83-7.57-17.74-13.13c-3.3-3.75-6.07-7.97-8.15-12.52
	c-1.97-4.29-3.31-8.86-4.01-13.53l-0.01-0.01c-1.13-7.42-0.67-15.09,1.39-22.31"/>
<path class="st0" d="M100.71,168.81c-0.65,0.61-1.24,1.18-1.77,1.69c-3.41,3.31-6.2,7.19-8.32,11.42
	c-6.46,12.85-6.82,28.87-0.06,41.64c2.39,4.53,5.63,8.54,9.44,11.92c2.63,2.33,5.53,4.36,8.62,6.05c2.02,1.1,4.11,2.06,6.26,2.86
	c2.94,1.1,5.98,1.9,9.07,2.37c1.72,0.28,3.46,0.45,5.2,0.51c3.34,0.14,6.7-0.12,9.99-0.8c0.81-0.17,1.63-0.36,2.44-0.56
	c4.43-1.08,8.86-2.45,13.35-1.9c2.55,0.31,5.11,1.58,6.93,3.38"/>
<path class="st0" d="M84.97,281.57v-0.01c6.12-14.97,11.15-30.39,15.03-46.08"/>
<path class="st0" d="M105.69,266.32c3.91-6.91,7.01-14.29,9.19-21.93"/>
<path class="st0" d="M129.15,247.27c-0.83,3.9-2.09,7.71-3.77,11.33"/>
<path class="st0" d="M141.58,245.91c-0.43,2.94-1.22,5.84-2.33,8.6"/>
<path class="st0" d="M89.28,340.55c7.24-11.29,18.15-20.26,30.71-24.98"/>
<path class="st0" d="M120.39,334.69v0.01c-1.6,0.56-3.17,1.45-4.53,2.38c-7.77,5.27-14.77,11.66-20.71,18.92"/>
<path class="st0" d="M118.63,356.59v0.01c-6.2,3.05-11.84,7.23-16.55,12.28"/>
<path class="st0" d="M182.93,542.08c-3.87-0.25-7.78-0.52-11.64-1c-5.97-0.74-11.82-1.99-17.25-4.51
	c-8.94-4.15-16.6-12.59-16.87-22.45c-0.26-9.38,5.97-17.77,7.12-27.08c0.26-2.07,0.27-4.11,0.05-6.1
	c-1.39-13.41-12.55-24.94-22.95-34.42c-9.41-8.56-19.51-18.69-22.55-30.46"/>
<path class="st0" d="M168.79,565.53c-0.28-0.07-0.55-0.14-0.83-0.21c-10.96-2.86-21.9-6.19-31.13-12.65
	c-3.58-2.5-6.86-5.58-9.58-9.06c-5.33-6.83-8.48-15.19-7.39-23.69c0.46-3.63,1.64-7.02,3.26-10.24c2.88-5.75,7.19-10.95,11.45-15.97
	c0.66-0.79,1.33-1.56,1.98-2.34c2.76-3.26,5.5-6.75,7.79-10.43c2.02-3.27,3.69-6.7,4.68-10.26c0.83-2.95,1.19-5.99,0.92-9.12
	c-0.76-8.54-6.2-15.84-12.66-21.66c-0.89-0.8-1.8-1.57-2.72-2.31c-7.58-6.14-16.21-11.11-22.73-18.38
	c-3.07-3.41-5.6-7.56-7.04-11.93"/>
<path class="st0" d="M96.68,524.85c3.7-6.84,1.8-15.54-2.39-22.09c-4.19-6.55-10.34-11.54-15.9-16.96
	c-1.27-1.23-2.52-2.52-3.71-3.86c-4.04-4.53-7.41-9.65-8.54-15.54c-1.88-9.84,2.84-19.66,7.97-28.26
	c3.77-6.32,7.94-12.73,10.16-19.65"/>
<path class="st0" d="M88.29,466.13c5.62,4.46,9.05,11.98,10.5,19.28c0,0,0.01,0,0,0.01c0.03,0.09,0.04,0.18,0.06,0.27
	c1.91,9.86,1.41,20.21,4.59,29.74c0.63,1.88,1.39,3.72,2.21,5.55c3.07,6.85,6.88,13.5,6.78,20.9c-0.12,8.54-5.47,16.19-6.48,24.66
	c-0.99,8.29,2.63,16.44,8.6,22.33c3.69,3.65,8.27,6.43,13.22,7.87c12.97,3.76,27.33-0.49,38.1-8.63
	c-10.08,4.28-22.54,2.28-30.77-4.95c-7.22-6.35-10.76-15.63-13.41-25.03c-0.56-1.95-1.08-3.92-1.58-5.86
	c-3.56-13.7-7.12-27.43-9.47-41.4c-3.16-18.81-4.09-38-2.77-57.03"/>
<path class="st0" d="M143.42,621.96c-15.12-3.78-26.74-17.8-28.87-33.09c-0.46-3.31-0.48-6.68,0.01-10.01
	c1.07-7.22,4.13-13.98,7.13-20.73c2.13-4.79,4.23-9.58,5.56-14.52c0.78-2.87,1.29-5.79,1.39-8.79c0.31-8.64-2.76-16.86-5.52-25.14
	c-0.84-2.53-1.66-5.07-2.34-7.62c-3.32-12.42-3.43-25.68-0.37-38.17"/>
<path class="st0" d="M90.81,629.27c0.29-0.24,0.56-0.5,0.83-0.76c3.7-3.49,6.65-7.78,8.47-12.53c3.86-10.03,2.62-21.88-3.23-30.9
	c-4.53-6.97-11.44-12.1-16.16-18.94c0-0.01-0.01-0.01-0.01-0.02c-4.72-6.85-6.63-17.03-0.82-22.98c1.28-1.31,2.79-2.28,4.42-3.09
	c2.84-1.43,6.02-2.38,8.87-3.86c6.08-3.16,10.26-8.75,12.47-15.21c2.35-6.83,2.5-14.63,0.38-21.55c-1.56-5.1-4.07-9.76-7.24-14.01
	v-0.01c-3.94-5.3-8.89-9.96-14.23-14.02"/>
<path class="st0" d="M134,372.7c6.76,3.27,11.2,12.38,10.88,20.49c-0.41,10.15-5.25,19.57-7.25,29.53
	c-0.12,0.62-0.23,1.23-0.33,1.85c-0.05,0.33-0.1,0.66-0.14,0.99c-1.01-1.45-2-2.93-2.93-4.44h-0.01
	c-5.38-8.66-9.03-18.14-6.11-27.55c1.41-4.57,4.34-8.75,4.58-13.52c0.07-1.47-0.31-3.01-0.94-4.37"/>
<path class="st0" d="M201.46,638.3c-12.62-0.39-22.88-11.6-26.11-23.81c-3.24-12.21-0.93-25.16,1.99-37.45
	c2.91-12.29,6.45-24.71,5.62-37.32c-1.36-20.51-13.89-38.24-25.35-55.38c0-0.01,0-0.01,0-0.01c-0.29-0.42-0.56-0.83-0.84-1.25
	c-2.67-4-5.31-8.14-7.75-12.4c-5.6-9.76-10.18-20.12-11.74-30.78c-0.7-4.73-0.79-9.52-0.12-14.34c1.44,2.05,2.93,4.05,4.4,5.97
	c4.84,6.32,9.66,12.68,14.32,19.15c2.72,3.74,5.38,7.52,7.95,11.34c8.69,12.81,16.54,26.14,22.6,40.36
	c4.03,9.45,7.22,19.37,9.26,29.49c3.54,17.48,3.63,35.52-1.35,52.57c-2.89,9.87-7.45,19.46-7.88,29.74
	C186.04,624.46,191.42,636.07,201.46,638.3z"/>
<path class="st0" d="M55.33,608.51c5.19-5.06,8.82-12.18,9.3-19.37c1.08-15.93-7.81-30.61-16.21-44.19
	c-3.82-6.15-7.66-12.6-10.55-19.3c-3.48-8.06-5.58-16.47-4.59-25.14c1.35-11.78,8.19-21.86,14.54-32.03
	c0.21-0.33,0.41-0.66,0.62-0.99v-0.01c1.14-1.83,2.25-3.67,3.31-5.52c6.52-11.4,10.98-23.94,13.29-36.87c0,0,0.01,0,0.01-0.01
	c3.06-17.06,2.37-34.81-2.26-51.52"/>
<path class="st0" d="M108.62,241.53c-4.77,7.24-10.24,14.04-16.28,20.27"/>
<path class="st0" d="M109.58,258.7L109.58,258.7c5.6-2.85,10.54-6.97,14.37-11.94"/>
<path class="st0" d="M81.48,410.46c6.96-23.87-5.14-49.1-4.06-73.93c0.94-21.62,12.59-42.51,30.48-54.67
	c12.03-8.17,26.27-12.38,39.17-19.1c8.6-4.48,16.95-10.67,22.37-18.53"/>
<path class="st0" d="M150.33,251.28L150.33,251.28c-17.19,13.56-39.98,19.36-56.84,33.55c-14.41,12.14-23.63,30.25-24.96,49.05
	c-0.45,6.36-0.04,12.82-1.39,19.05c-0.28,1.32-0.67,2.64-1.15,3.92"/>
<path class="st0" d="M88.64,334.5c8.12-14.48,19.18-27.29,32.31-37.44"/>
<path class="st0" d="M91.26,337.1c5.32-12.73,15.79-23.21,28.51-28.55"/>
<path class="st0" d="M167.87,533c-10.02-5.64-16.87-16.55-17.59-28.02c-0.57-8.92,2.31-17.64,3.49-26.51
	c0.17-1.27,0.3-2.53,0.39-3.8c0.86-12.88-3.62-26.03-12.16-35.72c-1.31-2.75-3.16-5.04-5.29-7.08c-6.12-5.86-14.57-9.68-19.39-16.62
	c-2.3-3.32-3.6-7.12-4.14-11.09c-0.78-5.6-0.07-11.57,1.42-17.07c0.98-3.59,2.24-7.09,3.56-10.57c2.14-5.63,4.43-11.22,5.91-17.05
	c3.12-12.29,2.49-25.17,3.07-37.84c0.44-9.71,1.75-19.74,5.73-28.48"/>
<path class="st0" d="M118.15,376.54l0.01-0.01c0-0.01,0-0.01,0-0.01c13.59-16.59,22.39-37.08,25-58.36"/>
<path class="st0" d="M113.18,404.17v-0.01c3.83-15.93,13.48-30.25,22.94-43.86c2.22-3.18,4.61-6.5,7.76-8.63"/>
<path class="st0" d="M143.86,154.04c-1.05,0.99-2.07,2.01-3.06,3.06l-0.01,0.01c-5.09,5.35-9.44,11.39-12.86,17.94
	c-1.63,3.13-3.04,6.36-4.23,9.68c0,0.01,0,0.01,0,0.01c-2.43,6.74-3.94,13.82-4.49,20.97c-0.2,2.43-0.28,4.86-0.25,7.3"/>
<path class="st0" d="M136.7,226.14c-0.51-1.76-0.97-3.54-1.37-5.33c-4.8-21.09-2.8-43.71,5.46-63.7l0.01-0.01"/>
<path class="st0" d="M151.64,231.11c-0.49-1.02-0.95-2.06-1.39-3.1c-10.93-25.8-9.9-56.56,2.91-81.43c1.32-1.94,2.66-3.89,4.37-5.49
	c1.87-1.76,4.15-3.04,6.52-4.03s4.85-1.69,7.33-2.38"/>
<path class="st0" d="M191.92,234.73c-3.44-5.37-10.48-7.21-16.85-7.11c-2.89,0.05-5.76,0.4-8.63,0.73
	c-3.48,0.41-6.95,0.79-10.43,0.57c-1.96-0.12-3.88-0.43-5.76-0.91c-5.33-1.32-10.33-3.93-14.92-7.2c-3.22-2.27-6.24-4.87-9.05-7.58
	c-2.46-2.37-4.83-4.89-7.07-7.52c-4.88-5.74-9.14-12.05-12.41-18.75c0-0.01-0.01-0.02-0.01-0.03c-2.85-5.79-4.95-11.87-6.26-17.73
	c2.03-2.77,5.19-4.68,8.06-5.44c2.51-6.94,6.5-13.34,11.62-18.65"/>
<path class="st0" d="M178.92,142.2c-11.91,1.98-22.3,10.58-27.59,21.49c-0.2,0.41-0.39,0.83-0.58,1.25
	c-5.32,12.01-4.88,26.1-0.33,38.42c3.45,9.35,9.14,17.73,16.02,24.99c2.17,2.3,4.47,4.49,6.85,6.56"/>
<path class="st0" d="M194.67,229.23c-16.04-7.05-30.74-18.47-38.57-34.15s-7.65-35.91,3.05-49.8c4.19-4.07,9.57-6.89,15.29-8.02"/>
<path class="st0" d="M205.43,219.8c-8.64-7.18-16.78-15.21-22.37-24.96c-5.58-9.75-8.43-21.41-6.02-32.38
	c2.41-10.97,10.7-20.91,21.62-23.56"/>
<path class="st0" d="M216.81,138.89c-10.87,1.92-19.77,10.77-23.4,21.2c-3.63,10.42-2.49,22.09,1.41,32.41
	c3.9,10.32,10.38,19.47,17.43,27.97"/>
<path class="st0" d="M215.18,218.55c-6.45-8.35-11.48-17.94-13.65-28.26c-2.18-10.32-1.38-21.42,3.2-30.92s13.11-17.25,23.31-19.95"
	/>
<path class="st6" d="M204.89,159.02c1.48,4.84,2.64,9.78,4.19,14.6c2.09,6.5,5,12.94,9.94,17.87"/>
<path class="st7" d="M200.38,178.6c2.93,8.23,7.92,15.48,14.28,20.42"/>
<path class="st8" d="M210.99,150.06c4.82,3.52,7.39,9,8.6,14.21c1.57,6.74,1.67,13.84,5.47,20.02"/>
<path class="st9" d="M213.71,147.34c3.79,2.59,6.69,6.23,8.1,10.3c1.16,3.37,1.34,6.95,2.46,10.32c1.13,3.38,3.56,6.74,7.36,7.73"/>
<path class="st10" d="M220.05,142.72c7.3,2.62,12.89,8.09,14.29,14.25c0.53,2.35,0.5,4.75,1.1,7.08c0.6,2.34,1.98,4.7,4.57,5.97"/>
<path class="st0" d="M235.55,140.06c2.28,1.44,3.34,4.15,4.42,6.62c0.85,1.92,1.94,3.95,3.6,5.12"/>
<path class="st0" d="M216.57,199.95c7.4-15.49,21.99-27.23,38.52-31.68h0.01c3.69-1,7.47-1.63,11.29-1.86
	c5.34-0.33,11.1,0.22,15.23,3.61c3.19,2.61,4.96,6.54,6.45,10.38c1.73,4.44,3.23,8.97,4.5,13.56c0.01,0,0.01,0.01,0.01,0.01
	c2.34,8.39,3.92,16.99,4.71,25.65"/>
<path class="st0" d="M300.8,211.85c-2.28-6.15-5.04-12.14-8.22-17.88c0,0,0-0.01-0.01-0.01c-1.07-1.94-2.2-3.83-3.37-5.71
	c-2.78-4.43-5.88-8.77-9.96-12.04c0-0.01-0.01-0.01-0.01-0.01c-0.16-0.12-0.31-0.24-0.48-0.37c-6.69-5.13-15.11-6.84-23.65-7.56
	h-0.01"/>
<path class="st0" d="M219.14,197.71c5.15-6.99,11.55-13.25,19.36-17.03s17.16-4.88,25.26-1.75c9.1,3.52,15.62,11.92,19.14,21.02
	c3.52,9.1,4.45,18.96,5.35,28.68"/>
<path class="st0" d="M293.26,228.54c-1.01-10.84-2.07-21.74-5.01-32.21c-2-7.1-4.91-14.03-9.01-20.12c0-0.01-0.01-0.01-0.01-0.01"/>
<path class="st0" d="M223.3,193.75c8.18-7.72,20.43-10.87,31.32-8.05c10.89,2.82,20.07,11.51,23.48,22.23
	c2.77,8.69,2.17,18.88,8.04,25.86"/>
<path class="st0" d="M216.24,207.27c6.96-6.63,17.01-9.87,26.53-8.55c9.52,1.32,18.32,7.16,23.22,15.43
	c4.09,6.9,5.87,15.66,12.39,20.34"/>
<path class="st0" d="M234.32,198.72c3.55-3.2,8.21-5.17,12.99-5.41c6.09-0.3,12.25,2.23,16.38,6.71c3.27,3.54,5.2,8.07,7.07,12.51
	c2.64,6.27,5.28,12.54,7.93,18.81"/>
<path class="st0" d="M214.74,214.7c7.41-9.8,21.91-13.45,33.07-8.33c5.82,2.67,10.54,7.33,14.22,12.56
	c3.68,5.24,6.4,11.07,9.1,16.87"/>
<path class="st0" d="M217.62,214.41c7.44-5.65,18.17-5.11,26.61-1.11c8.44,4,15.09,10.9,21.52,17.67"/>
<path class="st0" d="M250.91,143.28c-4.9-1.99-10.18-2.93-15.51-3.52c-2.4-0.26-4.8-0.46-7.19-0.65c-14.12-1.12-28.6-2.21-42.2,1.74
	c-0.84,0.24-1.67,0.51-2.5,0.8"/>
<path class="st0" d="M179.63,143.2c-11.01,4.93-20.39,13.97-22.75,25.63c-2.32,11.39,2.47,23.39,10.3,31.98
	c7.84,8.58,18.38,14.22,29.12,18.66"/>
<path class="st0" d="M183.51,141.65c-1,0.96-1.98,1.97-2.91,3c-2.53,2.75-4.83,5.7-6.81,8.88c-5.65,9.05-8.56,20.15-6.31,30.58
	c1.97,9.1,7.68,17.04,14.6,23.27c6.91,6.23,15.03,10.94,23.09,15.6"/>
<path class="st0" d="M183.28,232.65c-6.73,1.82-13.63,3.52-20.57,4.66c-11.49,1.89-23.07,2.2-34.12-1.15
	c-13.79-4.19-25.72-14.18-32.25-27.02c-4.26-8.36-6.19-17.86-5.72-27.22c0-0.01,0-0.01,0-0.01"/>
<path class="st0" d="M180.6,144.65c-0.31-0.49-0.63-0.97-0.97-1.45c-0.22-0.34-0.47-0.67-0.71-1c-5.75-7.7-14.56-13.17-24.13-14.27
	c-14.56-1.68-29.73,6.89-35.82,20.22c-1.62,3.55-2.56,7.36-2.87,11.23c-0.72,8.99,1.99,18.3,7.6,25.35c0,0.01,0,0.01,0,0.01"/>
<path class="st0" d="M147.83,156.97c-1.01-1.39-2.39-2.33-3.97-2.93c-0.49-0.19-1-0.35-1.52-0.47c-2.37-0.57-5.01-0.55-7.43-0.25
	c-6.58,0.81-12.99,2.9-18.81,6.06c-2.79,1.52-5.45,3.28-7.92,5.26v0.01"/>
<path class="st10" d="M159.45,145c-0.38-1.68-0.51-3.41-0.44-5.14c0.15-3.56,1.2-7.12,2.95-10.26c0.4-0.72,0.83-1.41,1.3-2.08
	c4.3-6.13,11.13-10.14,18.31-12.24c4.7-1.38,9.58-2,14.49-2.25"/>
<path class="st10" d="M244.06,119.52c-3.33-1.3-6.55-2.97-9.76-4.66c-2.44-1.29-4.88-2.6-7.35-3.78
	c-8.25-3.93-18.35-6.34-26.26-1.77c-1.73,1.01-3.25,2.28-4.63,3.72c-2.7,2.79-4.9,6.19-7.25,9.32c-3.55,4.74-8.27,9.37-14.19,9.72"
	/>
<path class="st10" d="M180.57,134.35c16.59,0.21,28.38-18.36,44.92-19.68c2.87-0.23,5.87,0.06,8.81,0.19"/>
<path class="st10" d="M193.45,137.25c9.99-1.46,19.7-4.84,28.43-9.9c3.23-1.87,6.37-3.99,9.94-5.06c2.63-0.8,5.61-0.93,8.15,0.02"/>
<path class="st10" d="M281.85,116.67c-3.62-0.59-7.26-1.02-10.91-1.3c-7.65-0.58-15.53-0.45-22.73,2.22
	c-1.42,0.53-2.82,1.17-4.15,1.93c-0.01,0-0.01,0-0.01,0c-1.44,0.8-2.81,1.73-4.08,2.79c-3.51,2.86-6.24,6.59-7.45,10.94"/>
<path class="st10" d="M235.4,139.76h0.01c10.06-5.16,20.13-10.33,30.19-15.49c5.28-2.71,10.69-5.44,16.25-7.6
	c7.15-2.79,14.54-4.61,22.16-4.17c12.19,0.7,23.46,7.26,32.18,15.81c8.07,7.9,14.27,17.47,20.27,27.08"/>
<path class="st10" d="M405.41,224.17c-0.42-2.21-0.68-4.47-0.82-6.68c-0.28-4.44-0.26-8.96-0.64-13.4
	c-0.34-3.82-0.97-7.58-2.36-11.15c-3.21-8.28-10.04-14.53-16.66-20.46c-5.26-4.72-10.58-9.48-16.77-12.9
	c-3.63-2.01-7.62-3.53-11.7-4.19c-2.87-0.47-5.79-0.52-8.67-0.01c-4.2,0.66-8.26-1.65-11.6-4.48c-3.33-2.83-6.16-6.22-9.48-9.06
	c-13.36-11.46-32.86-12.66-50.14-9.34c-7.92,1.52-15.8,3.92-22.5,8.4c-1.09,0.73-2.15,1.52-3.16,2.38c-2.91,2.41-5.44,5.3-7.34,8.52
	c-1.52,2.56-2.63,5.34-3.22,8.27"/>
<path class="st10" d="M246.75,160.49c6.3-2.28,12.68-4.58,19.35-5.25s13.76,0.43,19.14,4.42c7.13,5.28,10.04,14.49,11.59,23.22
	s2.28,17.88,6.62,25.62"/>
<path class="st10" d="M305.78,207.52c0.01-0.97,0.02-1.93,0.02-2.9c0.02-2.58,0.01-5.19-0.07-7.79c-0.03-1.19-0.08-2.38-0.14-3.57
	c-0.56-9.9-2.36-19.61-7.75-27.77c-1.16-1.76-2.48-3.39-3.94-4.89c-6.3-6.51-15.13-10.54-24.19-11.28
	c-4.75-0.39-9.56,0.12-14.1,1.65"/>
<path class="st10" d="M269.71,149.32c5.98-4.49,14.29-5.86,21.83-4.7c9.41,1.45,17.95,6.18,26.26,10.82
	c3.66,2.04,7.36,4.09,11.15,5.87"/>
<path class="st10" d="M293.9,160.6c1.97-2.41,5.3-3.69,8.48-3.76c3.92-0.08,7.7,1.33,11.37,2.72c3.26,1.23,6.52,2.46,9.78,3.7"/>
<path class="st10" d="M310.5,177.3c2.03-6.37,6.97-11.19,13.03-14.04c1.73-0.82,3.55-1.47,5.42-1.95c3.79-0.98,7.78-1.26,11.61-0.75
	c11.52,1.52,21.54,8.65,29.43,17.26c0.57,0.62,1.13,1.25,1.68,1.89c8.13,9.45,14.3,20.39,21.81,30.33
	c3.73,4.93,7.76,9.58,11.93,14.13c4.1,4.49,8.32,8.87,12.48,13.31c3.46,3.67,6.87,7.39,10.13,11.23
	c6.78,7.98,13.02,16.75,17.37,26.23c1.72,3.74,3.14,7.6,4.19,11.56"/>
<path class="st10" d="M369.99,177.82c9.94,2.4,19.14,7.92,25.76,15.72c2.82,3.33,5.37,7.15,8.2,10.55"/>
<path class="st10" d="M445.39,274.94c-3.76-1.1-7.35-3.75-9.81-6.87c-4.42-5.59-6.88-12.6-11.72-17.81
	c-1.8-1.94-3.86-3.56-6.05-5.02h-0.01c-4.84-3.21-10.32-5.6-15.17-8.85c-20.63-13.81-29.03-42.46-51.66-52.67
	c-15.07-6.81-34.2-2.49-45.38,9.54"/>
<path class="st10" d="M305.73,196.83c1.94-3.56,5.59-6.28,9.69-7.57c2.22-0.7,4.57-0.98,6.85-0.75c8.57,0.87,15.74,6.95,21.06,13.73
	c5.32,6.77,9.39,14.51,15.21,20.86c8.39,9.17,19.82,14.85,30.4,21.38c10.59,6.52,21.05,14.72,25.4,26.37
	c5.14,13.74,1.34,31.06,11.17,41.95c3.4,3.76,8,6.16,12.03,9.23c8.05,6.13,13.69,14.81,19.16,23.32
	c7.43,11.53,15.11,23.88,15.23,37.6c0.08,8.85-3.05,17.69-1.53,26.41c1.01,5.83,4.04,11.12,5.55,16.84
	c1.06,4.01,1.16,8.63-0.46,12.31"/>
<path class="st10" d="M315.42,189.26c3.62-2.74,8.28-4.3,12.85-4.31c8.3-0.02,16.12,4.2,22.29,9.75
	c6.17,5.55,10.99,12.4,16.12,18.92c4.87,6.19,10.07,12.13,15.24,18.77c14.28,7.08,29.58,15.2,36.24,29.68
	c4.02,8.76,4.36,18.94,8.86,27.46c6.42,12.18,20.38,19.24,25.94,31.83c2.66,6.02,3.75,13.65,9.55,16.75
	c2.33,1.24,5.18,1.55,7.11,3.35c1.62,1.52,2.25,3.8,2.81,5.96c1.27,4.88,2.54,9.76,3.8,14.65c1.8,6.92,3.6,13.89,4.08,21.03
	c0.7,10.55-1.47,21.62,2.49,31.42c1.84,4.57,4.89,8.52,7.21,12.86c5.07,9.47,6.47,20.41,7.79,31.07c0.5,4.02,0.94,8.34-0.95,11.92
	c-0.55,1.04-1.39,1.95-2.37,2.65"/>
<path class="st10" d="M417.89,237.48c-0.26,2.57-0.28,5.17-0.09,7.76h0.01c0.86,11.31,5.99,22.34,14.51,29.88
	c5.17,4.58,11.31,7.84,17.26,11.38c1.85,1.1,3.68,2.23,5.46,3.44c7.5,5.09,14.44,12.28,15.52,21.27c0.86,7.15-2.11,14.62,0.09,21.48
	c3.07,9.54,14.87,14.13,18.05,23.64c1.94,5.81,0.2,12.11-0.78,18.16c-0.97,6.05-0.82,13.1,3.74,17.2c3.58,3.22,8.78,3.62,13.53,4.44
	c4.74,0.82,10.02,2.77,11.68,7.29c1.31,3.55-0.1,7.52-2.02,10.78c-1.91,3.26-4.37,6.29-5.4,9.93c-1.03,3.63-0.08,8.24,3.32,9.89
	c4.39,2.13,10.73-1.45,14.06,2.12c4.67,5.01-4.94,14.71,0.13,19.32c2.25,2.04,5.76,1.21,8.78,1.48c3.03,0.28,6.3,3.85,4.09,5.94"/>
<path class="st10" d="M470.09,434.1c-9.15-9.97-11.98-24.3-13.14-37.85c-1.18-13.92-1.14-28.32-6.55-41.21
	c-5.4-12.88-18.23-24.03-32.07-22.1c-2.81-2.05-4.7-6.41-4.59-10.05c0.11-3.64,1.37-7.31,0.54-10.85c-0.81-3.43-3.36-5.95-5.89-8.52
	c-1.6-1.63-3.18-3.27-4.32-5.17c-0.31-0.51-0.59-1.04-0.82-1.6c-1.29-3.07-1.12-6.28-0.49-9.56c0.82-4.37,2.46-8.86,2.55-13.3
	c0.02-0.59,0.01-1.17-0.04-1.76c-0.71-8.87-8.69-15.43-16.85-18.97c-8.16-3.54-17.18-5.23-24.66-10.05
	c-7.32-4.71-12.52-11.99-17.65-19.03c-5.12-7.03-10.56-14.2-18.13-18.49c-6.73-3.82-15.63-4.78-22.18-0.97v0.01
	c-0.81,0.46-1.59,1.01-2.32,1.63"/>
<path class="st10" d="M470.09,434.1c-10.61-0.55-19.05-11.07-21.37-21.75c-2.48-11.41-0.16-23.26-0.11-34.94
	c0.05-11.69-3.05-24.67-12.85-31.02c-8.67-5.61-21.71-5.57-26.52-14.7c-1.29-8.89-1.53-18.51-0.85-28.17
	c0.15-2.18,0.35-4.36,0.6-6.54c0.59-5.33,1.45-10.82,0.01-15.98c-0.74-2.65-2.02-5.01-3.69-7.11c-4.17-5.25-10.74-8.85-17.2-11.19
	c-9.06-3.26-18.86-5.06-26.75-10.58c-6.65-4.65-11.34-11.55-15.91-18.26c-4.57-6.71-9.34-13.57-16.09-18.08
	c-6.75-4.52-16.03-6.21-23-2.03"/>
<path class="st10" d="M301.77,218.48c10.14-1.38,19.81,4.84,26.96,12.15c7.16,7.31,12.97,16.05,21.23,22.09
	c8.98,6.56,20.06,9.38,30.24,13.86c10.18,4.48,20.3,11.68,23.11,22.44c3.85,14.75-7.23,31.48-0.21,45
	c6.63,12.77,25.48,14.53,33.16,26.71c4.27,6.77,4.14,15.39,3.02,23.32c-1.12,7.93-3.08,15.92-1.98,23.85
	c1.73,12.43,11.68,23.3,25.43,27.79c13.9-0.2,27.22,10.34,30.23,23.91c1.43,6.46,0.75,13.32,2.82,19.6
	c1.98,6.04,6.38,11.15,7.75,17.35c1.82,8.2-1.95,16.57-1.96,24.97c-0.01,8.6,3.92,16.72,8.63,23.91
	c4.71,7.19,10.3,13.83,14.28,21.45s6.25,16.64,3.73,24.86s-10.97,14.93-19.42,13.33"/>
<path class="st10" d="M539.43,499.08c2.49-9.13-3.72-18.17-9.91-25.31c-6.19-7.15-13.17-15.14-12.54-24.57
	c0.29-4.25,2.14-8.22,3.14-12.36c0.19-0.75,0.33-1.53,0.43-2.32c0.46-3.53,0.01-7.24-2.37-9.78c-1.96-2.1-4.7-2.93-7.55-3.58
	c-1.86-0.43-3.75-0.78-5.52-1.35c-10.67-3.48-16.36-15.81-15.86-27.02c0.06-1.21,0.17-2.42,0.34-3.61"/>
<path class="st10" d="M539.53,598.97c-4.61,1.33-9.76,0.48-13.82-2.06c-1.59-0.98-3.01-2.22-4.17-3.68
	c-4.16-5.23-4.81-12.99-1.57-18.83c1.33-2.4,3.24-4.48,4.95-6.65c1.52-1.93,2.88-3.93,3.52-6.28c1.83-6.69-2.88-13.52-8.49-17.6
	c-4.37-3.18-9.41-5.41-13.86-8.43c-0.68-0.46-1.35-0.94-1.99-1.44c-0.56-0.43-1.1-0.89-1.63-1.36c-6.08-5.45-9.43-13.47-10.28-21.61
	c-0.05-0.41-0.09-0.83-0.12-1.25c-0.62-8.48,1.27-16.97,4.13-24.98c0.03-0.07,0.05-0.15,0.08-0.22c0.26-0.71,0.52-1.42,0.79-2.14
	c2.1-5.56,4.55-11.24,6.37-16.94c2.67-8.37,3.99-16.76,0.85-24.79c-0.86-2.18-1.99-4.18-3.34-6.02c-3.4-4.62-8.16-8.25-13.3-11.35"
	/>
<path class="st10" d="M506.09,535.44c2.9-2.6,6.29-4.52,10.12-5.22c8.96-1.63,18.15,4.23,22.32,12.32
	c4.16,8.1,4.01,17.84,1.71,26.65c-1.33,5.1-3.36,10.2-2.87,15.44c0.49,5.25,4.69,10.67,9.93,10.16"/>
<path class="st10" d="M439.6,381.42c-2.1-6.4-5.78-12.27-10.79-16.78c-4.45-4.01-9.74-6.94-14.62-10.41
	c-1.68-1.19-3.31-2.44-4.84-3.83c-9.18-8.34-13.96-21.28-12.39-33.58c1.15-9.05,5.45-18.39,2.15-26.89
	c-2.74-7.06-10.07-11.29-17.34-13.41c-7.27-2.13-14.97-2.73-22.05-5.41c-23.89-9.06-35.29-39.26-59.77-46.56"/>
<path class="st10" d="M414.19,354.23c-13.46-2.92-25.03-14.8-26.32-28.68c-1.09-11.76,3.73-25.49-4.14-34.29
	c-6.24-6.97-17-6.61-25.98-9.26c-0.93-0.27-1.84-0.58-2.74-0.92c-2.64-1-5.13-2.27-7.52-3.75c-8.8-5.42-16.14-13.58-23.54-21.03
	c-10.09-10.16-22.62-20.03-36.92-19.27"/>
<path class="st10" d="M347.49,277.33c-0.33,6.14,2.54,12.57,6.09,17.85c4.64,6.92,10.58,13.26,12.83,21.28
	c1.39,4.93,1.25,10.04,0.84,15.2c-0.52,6.57-1.48,13.2-0.26,19.63c1.64,8.62,6.98,15.86,13.27,22.17c2.01,2.01,4.11,3.93,6.22,5.76
	c0.25,0.22,0.5,0.43,0.75,0.65c1.99,1.72,4.02,3.43,6.03,5.17c4.24,3.68,8.37,7.48,11.82,11.77c1.9,2.35,3.6,4.86,5,7.57
	c3.93,7.58,5.28,16.37,9.54,23.75c0.15,0.29,0.32,0.58,0.5,0.86c5.9,9.56,16.82,15.97,20.13,26.71c1.6,5.21,1.16,10.4-0.21,15.6
	c-3.05,11.73-10.73,23.52-9.95,35.79c0.46,7.23,3.72,13.54,7.93,19.54v0.01h0.01c0.81,1.19,1.68,2.36,2.57,3.53
	c7.98,10.49,17.76,20.41,18.95,33.21"/>
<path class="st10" d="M367.25,331.66c5,4.34,9.67,9.02,13.44,14.45c5.99,8.64,9.55,18.99,16.77,26.63c5.25,5.55,12.08,9.29,18,14.1
	c1.51,1.23,2.97,2.57,4.32,4.02c3.95,4.23,6.91,9.34,7,15.03c0.04,2.44-0.44,4.78-1.19,7.08c-1.65,5.08-4.58,9.95-5.97,15.16
	c-0.24,0.88-0.43,1.77-0.56,2.67c-1.57,10.66,5.07,20.67,11.92,28.99c3.06,3.73,6.3,7.51,9.06,11.51c3.4,4.94,6.07,10.21,6.75,16.12
	c1.11,9.65-3.32,18.96-5.28,28.47c-0.76,3.71-1.1,7.49-1.03,11.25c0,1.01,0.04,2.02,0.12,3.03c1.43,20.45,14.25,40.19,33.08,48.65"
	/>
<path class="st10" d="M488.34,560.62c-15.44-8.69-24.71-27.24-22.37-44.81c1.09-8.18,4.41-16.64,1.63-24.41
	c-2.61-7.33-10.05-12.04-12.94-19.26c-3.55-8.87,0.59-19.19-1.95-28.4c-2.79-10.12-12.54-16.02-20.43-23.26
	c-2.52-2.3-4.85-4.75-6.69-7.51c-0.58-0.85-1.11-1.73-1.58-2.64c-3.07-5.93-3.59-12.72-4.23-19.47c-0.59-6.21-1.29-12.38-4.19-17.81
	c-2.3-4.3-5.71-7.67-9.5-10.75c-5.05-4.1-10.77-7.69-15.39-12.28c-7.1-7.06-11.45-16.37-15.65-25.48
	c-6.67-14.49-13.36-28.97-20.04-43.46"/>
<path class="st10" d="M503.11,577.51c-10.07-1.15-20.37-2.37-29.44-6.87c-9.07-4.5-16.83-13.03-17.53-23.13
	c-0.8-11.56,7.51-22.32,6.66-33.87c-0.85-11.34-10.2-20.23-13.27-31.18c-2.29-8.17-0.94-17-2.96-25.24
	c-2.56-10.46-10.27-19.05-13.07-29.44c-0.64-2.38-1.02-4.82-1.22-7.3c-1.29-16.07,4.81-33.83-4.74-46.59
	c-5.04-6.74-12.98-9.89-21.44-11.59c0,0,0,0-0.01,0"/>
<path class="st10" d="M434.22,528.09c-7.48,1.44-15.1-2.11-20.45-7.7c-1.09-1.13-2.08-2.36-2.96-3.64
	c-5.19-7.57-7.11-16.87-8.49-25.94c-1.39-9.08-2.38-18.37-6.05-26.78c-2.34-5.35-5.67-10.15-9.03-14.94
	c-3.17-4.53-6.37-9.07-8.76-14.05c-0.69-1.43-1.29-2.9-1.81-4.39v-0.01c-4.58-12.91-3.27-27.73,2.98-39.91
	c2.02-3.95,4.56-7.62,7.58-10.86"/>
<path class="st10" d="M393.26,385.04c-6.06,6.67-8.25,16.67-7.21,25.8c1.24,10.88,6.27,20.91,11.07,30.75
	c4.8,9.83,9.55,20.06,10.17,30.99c0.47,8.38-1.5,17,0.78,25.08c0.94,3.34,2.57,6.42,4.56,9.27c1.59,2.27,3.4,4.4,5.29,6.41
	c4.53,4.83,9.66,9.25,15.75,11.85c1.4,0.6,2.86,1.09,4.35,1.44v0.01h0.01"/>
<path class="st10" d="M457.28,617.01c-1.03-6.35-7.34-10.17-12.75-13.65c-5.4-3.48-11.09-8.92-9.8-15.22
	c0.89-4.35,4.94-7.52,6.67-11.49c0.38-0.86,0.65-1.75,0.75-2.7c0.58-5.29-3.97-9.53-7.75-13.27c-10.91-10.81-18-25.17-20.63-40.29
	c-0.77-4.44-1.16-8.95-1.14-13.46c0.03-7.97,1.31-15.92,3.95-23.46c3.25-9.29,8.42-19.13,5.15-28.42c-1.93-5.5-6.51-9.57-10.1-14.17
	c-9.56-12.24-11.92-29.56-6.55-44.07"/>
<path class="st10" d="M454.7,595.13c-2.87,1.67-6.57-0.85-7.89-3.9c-1.32-3.04-1.26-6.52-2.38-9.65c-0.68-1.88-1.72-3.5-3.03-4.93
	c-3.56-3.89-9.04-6.27-14.18-8.09c-7.03-2.47-14.8-5.09-18.58-11.51c-3.9-6.64-2.18-14.97-2.16-22.8c0.01-4.12-0.45-8.1-2.46-11.63
	c-1.03-1.8-2.35-3.31-3.88-4.64c-3.23-2.79-7.35-4.75-11.33-6.85c-4.3-2.27-8.46-4.72-11.21-8.58c-4.33-6.09-4.09-14.4-1.88-21.54
	c2.21-7.14,6.14-13.61,8.83-20.59c1.39-3.6,2.43-7.48,2.69-11.33"/>
<path class="st10" d="M431.23,619.13c-4.39,3.47-11.14-0.11-13.86-5s-3.17-10.75-5.71-15.74c-0.3-0.59-0.62-1.15-0.97-1.7
	c-5.7-9.06-17.24-12.99-25.68-19.91c-10.66-8.74-16.35-23.16-14.53-36.83c1.54-11.65,8.51-22.41,18.33-28.82"/>
<path class="st10" d="M429.22,602.97c-3.56,0.12-6.3-3.25-7.46-6.62c-1.15-3.37-1.37-7.07-3.03-10.23
	c-3.54-6.76-12.07-8.72-18.69-12.53c-1.14-0.65-2.23-1.38-3.26-2.17c-8.38-6.4-13.42-17.07-12.76-27.61
	c0.66-10.56,7.01-20.53,16.12-25.83"/>
<path class="st10" d="M419.5,621.83c-3.55,1.47-7.74-1.2-9.25-4.74c-1.5-3.54-1.03-7.57-0.39-11.36c0.5-2.99,1.09-6.06,0.83-9.04
	c-0.06-0.8-0.19-1.6-0.39-2.39c-1.26-4.82-5.17-8.39-8.15-12.38c-2.36-3.17-4.17-6.73-5.36-10.49c-0.01-0.01-0.01-0.01-0.01-0.01
	c-1.73-5.43-2.19-11.27-1.25-16.89c1.3-7.72,5.24-14.94,10.95-20.28"/>
<path class="st10" d="M447.14,426.44c-0.11,5.53,2.49,11.11,6.04,15.49c2.64,3.25,5.77,6.02,8.95,8.75c2.2,1.89,4.42,3.74,6.53,5.72
	c5.16,4.83,9.82,10.79,10.68,17.81c0.84,6.73-1.93,13.59-0.65,20.25c1.39,7.28,7.07,12.45,13.5,16.57"/>
<path class="st10" d="M542.04,513.81c-2.76,1.94-6.38,1.79-9.53,0.41c-1.39-0.6-2.69-1.45-3.78-2.45c-3.57-3.3-5.53-7.93-7.69-12.28
	c-2.16-4.35-4.84-8.78-9.15-11.02c-4.02-2.08-8.88-1.94-13.27-2.96c-0.83-0.19-1.64-0.42-2.42-0.71c-0.9-0.34-1.77-0.76-2.59-1.3
	c-7.75-5.1-6.52-16.88-11.23-24.88c-3.97-6.74-12.77-9.73-20.25-7.94"/>
<path class="st10" d="M538.87,521.77c-3.61-0.05-5.98-3.91-6.36-7.55c-0.02-0.17-0.03-0.34-0.04-0.51
	c-0.19-3.78,1.01-7.54,0.71-11.31c-0.42-5.08-3.51-9.56-6.99-13.28c-7.44-7.94-17.63-14.53-22.75-23.61c-0.01,0-0.01,0,0-0.01
	c-1.41-2.49-2.44-5.17-2.92-8.12c-0.95-5.85,0.52-11.8,0.71-17.72c0.05-1.63-0.03-3.32-0.28-4.97v-0.01"/>
<path class="st0" d="M356.62,509c0.91,9.3,0.95,18.72,1.9,28.03c1.33,13.1,4.78,26.64,13.75,36.28"/>
<line class="st0" x1="188.26" y1="525.7" x2="188.26" y2="525.69"/>
<path class="st0" d="M198.13,560.88v0.01c3.01,14.62,4.31,29.38,2.3,44.17"/>
</svg>
