<?xml version="1.0" encoding="utf-8"?>
<!-- Generator: Adobe Adobe Illustrator 24.2.0, SVG Export Plug-In . SVG Version: 6.00 Build 0)  -->
<svg version="1.1" xmlns="http://www.w3.org/2000/svg" xmlns:xlink="http://www.w3.org/1999/xlink" x="0px" y="0px"
	 viewBox="0 0 595.28 841.89" style="enable-background:new 0 0 595.28 841.89;" xml:space="preserve">
<style type="text/css">
	.st0{fill:none;stroke:#000000;stroke-width:0.9932;stroke-linecap:round;stroke-miterlimit:10;}
	.st1{stroke:#000000;stroke-width:0.9932;stroke-linecap:round;stroke-miterlimit:10;}
	.st2{opacity:0.9608;fill:#4F4F4F;stroke:#000000;stroke-width:0.9932;stroke-linecap:round;stroke-miterlimit:10;}
	.st3{stroke:#000000;stroke-width:1.292;stroke-linecap:round;stroke-miterlimit:10;}
	.st4{fill:none;stroke:#000000;stroke-width:1.292;stroke-linecap:round;stroke-miterlimit:10;}
	.st5{stroke:#000000;stroke-width:2.5058;stroke-linecap:round;stroke-miterlimit:10;}
	.st6{fill:#E25C11;stroke:#000000;stroke-width:0.9932;stroke-linecap:round;stroke-miterlimit:10;}
	.st7{fill:none;stroke:#000000;stroke-width:1.0042;stroke-linecap:round;stroke-miterlimit:10;}
	.st8{fill:none;stroke:#000000;stroke-width:1.0184;stroke-linecap:round;stroke-miterlimit:10;}
	.st9{fill:none;stroke:#000000;stroke-width:1.0075;stroke-linecap:round;stroke-miterlimit:10;}
	.st10{fill:none;stroke:#000000;stroke-width:0.9935;stroke-linecap:round;stroke-miterlimit:10;}
	.st11{fill:none;stroke:#000000;stroke-width:1.0232;stroke-linecap:round;stroke-miterlimit:10;}
	.st12{fill:none;stroke:#000000;stroke-width:1.0012;stroke-linecap:round;stroke-miterlimit:10;}
	.st13{fill:none;stroke:#000000;stroke-width:1.1267;stroke-linecap:round;stroke-miterlimit:10;}
	.st14{fill:none;stroke:#000000;stroke-width:1.1931;stroke-linecap:round;stroke-miterlimit:10;}
	.st15{fill:none;stroke:#000000;stroke-width:0.8707;stroke-linecap:round;stroke-miterlimit:10;}
	.st16{fill:#545352;stroke:#000000;stroke-width:1.0042;stroke-linecap:round;stroke-miterlimit:10;}
	.st17{fill:none;stroke:#000000;stroke-width:1.0072;stroke-linecap:round;stroke-miterlimit:10;}
	.st18{stroke:#000000;stroke-width:1.0042;stroke-linecap:round;stroke-miterlimit:10;}
	.st19{stroke:#000000;stroke-width:1.2767;stroke-linecap:round;stroke-miterlimit:10;}
</style>
<g id="Layer_1">
</g>
<g id="Layer_2">
	<path class="st0" d="M274.32,188.18c-24.77-1.4-51.35,0.33-71.36,14.88c-13.29,9.67-22.35,24.18-28.09,39.51
		c-5.73,15.32-8.41,31.58-11.05,47.71"/>
	<path class="st1" d="M163.81,290.16c-5.73,3.5-8.75,12.68-5.07,18.12c1.65,2.44-1.23-8.17,5.62-9.18
		c12.79-1.89,15.09,7.5,21.57,11.41C194.91,315.92,170.92,285.81,163.81,290.16z"/>
	<path class="st0" d="M196.94,297.08"/>
	<path class="st0" d="M158.99,308.34c1.17,6.05,8.23,33.61,12.64,35.12c0.03,0,0.05,0,0.12,0.19c15.9-3.05,22.77-26.62,15.58-33.81"
		/>
	<path class="st2" d="M171.39,343.64c-2.61-2.61-3.83-6.17-4.15-9.94s0.63-7.66,2.73-10.81c0.32-0.47,0.75-0.98,1.32-0.97
		c0.43,0.01,0.79,0.31,1.08,0.62c1.96,2.05,2.62,4.99,2.97,7.8c0.3,2.44,0.42,4.93-0.11,7.33
		C174.7,340.06,172.55,344.8,171.39,343.64z"/>
	<path class="st3" d="M158.74,333.28"/>
	<path class="st4" d="M159.09,343.64"/>
	<ellipse class="st5" cx="170.77" cy="333.28" rx="1.75" ry="3.88"/>
	<path class="st0" d="M190.52,296.23"/>
	<path class="st0" d="M167.56,318.07c2.12-1.71,4.61-3.04,7.3-3.51s5.59-0.02,7.83,1.53c1.68,1.15,2.92,2.85,3.82,4.68
		c0.9,1.82,1.49,3.79,2.07,5.74"/>
	<path class="st0" d="M171.39,321.91c1.45,0.62,2.89,1.24,4.34,1.87c1.52,0.65,3.04,1.31,4.49,2.12c2.39,1.34,4.52,3.09,6.64,4.83"
		/>
	<path class="st0" d="M160.66,332.48"/>
	<path class="st0" d="M175.13,320.98c0.41,1.53,1.44,2.88,2.8,3.69"/>
	<path class="st0" d="M172.84,318.55c0.31,1.76,1.07,3.43,2.19,4.82"/>
	<path class="st0" d="M170.41,318.36c0.66,1.69,1.65,3.24,2.92,4.54"/>
	<path class="st0" d="M165.91,317.32c0.88,2.07,2.55,3.79,4.6,4.74"/>
	<path class="st0" d="M164.36,318.61c0.69,0.97,1.4,1.93,2.3,2.7s2.01,1.35,3.19,1.42"/>
	<path class="st0" d="M158.12,320.31c3.14,2.2,6.66,3.84,10.36,4.83"/>
	<path class="st0" d="M160.49,318.67c2.46,2.39,5.44,4.22,8.68,5.33"/>
	<path class="st0" d="M155.63,320.75c3.12,3.37,7.58,5.47,12.17,5.72"/>
	<path class="st0" d="M157.84,324.88c2.61,2.18,5.82,3.63,9.18,4.16"/>
	<path class="st0" d="M159.38,328.67c2.06,1.49,4.54,2.39,7.07,2.59"/>
	<path class="st0" d="M161.42,332.62c1.72,0.78,3.62,1.15,5.51,1.08"/>
	<path class="st0" d="M178.67,316.86c3.89,3.35,7.02,7.58,9.09,12.28"/>
	<path class="st0" d="M174.42,318.24c2.98-0.02,5.88,1.31,8.11,3.3c2.23,1.99,3.83,4.59,5.02,7.33"/>
	<path class="st0" d="M165.41,343.7c1.25-1.05,2.94-1.55,4.55-1.35"/>
	<path class="st0" d="M166.82,345.3c0.95-1.08,2.34-1.77,3.78-1.86"/>
	<path class="st0" d="M169.3,345.91c0.66-0.81,1.44-1.52,2.31-2.09"/>
	<path class="st0" d="M171.82,346.05c0.47-1.16,1.27-2.19,2.29-2.93"/>
	<path class="st0" d="M174.52,345.01c0.28-1.11,0.92-2.13,1.78-2.88"/>
	<path class="st0" d="M177.17,343.67c0.35-1.13,1-2.17,1.86-2.99"/>
	<path class="st0" d="M186.72,331.6c-2.56,4.29-5.12,8.59-7.68,12.88c-4.58,8.92-9.79,17.27-15.81,25.04
		c-1.32,2.33-3.01,4.43-4.6,6.58c-1.59,2.15-3.11,4.41-4.03,6.92c-0.92,2.52-1.21,5.34-0.46,7.96c2.52,5.69,7.02,10.48,12.31,13.08
		c3.25,1.64,6.6,3.08,10.01,4.33"/>
	<path class="st0" d="M166.94,345.37c0.75,3.94,1.23,7.99,0.65,11.97c-0.81,5.56-3.65,10.6-6.44,15.48"/>
	<path class="st0" d="M167.55,347.54c1.99,0.93,4.25,1.68,6.34,1.02c1.52-0.48,2.72-1.63,3.74-2.86c1.84-2.22,3.25-4.77,4.6-7.32"/>
	<path class="st1" d="M198.39,409.1c-3.79-0.96-7.7-1.47-11.61-1.53c-2.01-0.03-4.07,0.05-5.99-0.56c-0.75-0.24-1.6-0.84-1.4-1.6
		c0.16-0.64,0.95-0.86,1.6-0.94c6.39-0.83,13.66-0.06,18.52,4.08C199.89,408.87,198.63,409.16,198.39,409.1z"/>
	<path class="st0" d="M199.36,414.54c4.69,2.05,10.41,1.55,14.66-1.3c4.25-2.85,6.9-7.94,6.79-13.05"/>
	<path class="st0" d="M158.71,398.24c-1.24,16.74,3.39,34.21,6.73,50.26c0.09,0.42,1.01,4.07,1.1,4.49
		c1.82,8.73,3.67,13.28,7.2,20.92c4.93,13.92,7.98,27.9,10.65,42.43c2.32,12.62,12.37,21.22,23.73,23.88
		c9.49,2.22,19.44,0.47,28.74-2.18c21.4-6.09,37.55-12.56,56.89-26.48"/>
	<path class="st0" d="M241.1,536.73c6.47,5.32,11.45,12.2,17.28,18.22c5.83,6.02,13.01,11.38,21.34,12.29"/>
	<path class="st0" d="M226.23,413.48c0.68,6.87,4.2,13.42,9.55,17.78"/>
	<path class="st0" d="M246.75,449.51c3.26,3.33,5.02,8.07,4.72,12.72"/>
	<path class="st0" d="M178.53,476.1c0.9,1.13,2.41,1.62,3.86,1.73c1.45,0.11,2.9-0.09,4.35-0.03c7.7,0.3,13.61,7.57,21.26,8.51"/>
	<path class="st0" d="M167.44,447.15c-1.91-4.1-0.36-8.98,1.83-12.94c2.19-3.96,5.07-7.68,5.99-12.11"/>
	<path class="st6" d="M172.14,439.31c-2.75-0.13-3.97,4.08-3.25,6.73c0.73,2.65,3.1,4.63,5.72,5.48c2.62,0.85,5.45,0.74,8.17,0.38
		s5.43-0.98,8.18-1.1c11.43-0.51,21.94,7.4,33.37,7.05c-9.59-6.75-19.94-12.42-30.79-16.87c-1.58-0.65-3.21-1.28-4.91-1.3
		c-1.9-0.03-3.73,0.7-5.6,1.06C179.32,441.45,175.64,439.47,172.14,439.31z"/>
	<path class="st6" d="M175.26,452.35c-10.5,15.04,4.29,24.86,19.21,23.73c15.78-0.34,27.62-15.41,43.34-16.06
		c-9.05-0.02-16.38-2.76-25.57-2.73c-8.92,0.03-10.6,1.2-16.36,1.5c-4.28,0.23-9.27,0.13-12.24-6.29
		C181.28,451.14,177.63,453.93,175.26,452.35z"/>
	<path class="st0" d="M174.04,244.64c3.1-15.21-0.96-31.76,5.16-46.02c2.58-6.01,7.07-12.92,10.06-18.74
		c1.87-3.66,3.24-7.56,5.24-11.15c2-3.59,4.76-6.94,8.86-8.61c7.46-9.23,19.06-16.36,30.62-19.02"/>
	<path class="st7" d="M222.77,195.22c-0.12-0.67-0.23-1.35-0.33-2.02c-1.77-11.98,0.03-24.4,4.25-35.74
		c4.46-11.97,11.54-22.81,20.03-32.4c9.17-9.92,19.71-18.52,31.22-25.28c8.4-4.48,18.04-6.48,27.41-6.18
		c12.77,1.93,22.58,12.43,29.98,23.25c0.33,0.48,0.66,0.96,0.98,1.45c0.04,0.06,0.08,0.1,0.11,0.16c0,0,0,0.01,0.01,0.01
		c5.15,7.71,9.91,15.89,16.33,22.3c2.21,2.21,4.61,4.21,7.3,5.91c2.83,3.24,5.49,6.62,7.98,10.13l0.01,0.01
		c0.39,0.55,0.78,1.11,1.15,1.67c0.01,0,0.01,0,0,0.01c9.56,13.94,16.42,29.82,20,46.45c3.02,14.03,3.69,28.59,1.92,42.78
		c-0.53,4.16-1.26,8.29-2.2,12.37c-0.38,1.68-0.81,3.35-1.27,5c-0.46,1.66-0.95,3.31-1.49,4.94c-0.32,0.97-0.64,1.93-0.94,2.88
		c-0.25,0.78-0.49,1.55-0.73,2.31c-0.49,1.57-0.96,3.1-1.4,4.62c0,0.01,0,0.01,0,0.02c-1.95,6.62-3.45,12.65-4.61,18.23
		c0,0,0,0,0,0.01c-0.08,0.39-0.16,0.77-0.23,1.15c-0.08,0.41-0.16,0.81-0.24,1.21c-1.75,8.94-2.63,16.72-3.12,23.92
		c-0.67,9.86-0.61,18.66-1.02,27.87c-0.07,1.54-0.15,3.1-0.25,4.68v0.01c-0.38,5.78-1.01,11.81-2.19,18.44
		c-0.03,0.19-0.07,0.38-0.1,0.57c-0.15,0.87-0.3,1.73-0.46,2.58v0.01c-2.19,12.36-4.2,22.97-6.68,33.33v0.01
		c-0.3,1.25-0.6,2.51-0.92,3.76c-0.95,3.76-1.96,7.5-3.09,11.3c-1.48,5-3.14,10.1-5.04,15.46c-1.09,3.02-2.25,6.13-3.51,9.35"/>
	<path class="st0" d="M187.16,219.16c-0.21-8.36-0.36-16.75,0.49-25.08c0.89-8.7,3.41-18.63,7.43-26.39"/>
	<path class="st0" d="M192.27,212.72c-2.69-17.15,0.08-35.12,7.8-50.67"/>
	<path class="st0" d="M199.69,205.27c-4.91-14.14-4.31-30.11,1.65-43.84"/>
	<path class="st0" d="M204.26,159.04c-2.93,5.76-2.83,14.23-0.87,20.38c1.97,6.16,5.48,11.68,8.97,17.12"/>
	<path class="st0" d="M220.21,146.33c-6.49,5.25-11.1,16.65-10.74,24.99c0.37,8.34,3.3,16.32,6.21,24.14"/>
	<path class="st0" d="M231.72,190.57c-1.13-17.66,2.18-35.84,11.06-51.15s24.13-26.86,41.31-31.12"/>
	<path class="st0" d="M351.63,451.76c-2.41-5.78-1.51-12.77-0.47-19.14c3.25-20.01,6.49-40.02,9.74-60.02
		c2.11-13,4.22-26.07,4.04-39.23c-0.28-19.95-5.83-39.59-5.61-59.53c-0.99-12.28-2.36-24.16-4.52-35.92
		c-3.58-19.56-9.3-38.65-15.01-57.7c-5.44-12.57-10.23-25.75-13.51-39.3c-1.38-5.67-2.5-11.43-4.61-16.87
		c-2.12-5.44-5.33-10.62-10.1-14c-6.13-4.34-14.26-5.2-21.59-3.55c-0.12,0.03-0.25,0.06-0.37,0.09c-1.09,0.26-2.16,0.56-3.22,0.92
		c-5.92,1.97-11.36,5.34-16.34,9.13c-11.02,8.4-20.33,19.22-26.15,31.79c-5.83,12.58-8.06,26.94-5.44,40.54"/>
	<path class="st0" d="M347.16,450.2c-8.72-38.17,3.53-77.56,7.69-116.5c5.29-49.52-1.85-96.91-22.49-142.19
		c-5.45-19.06-10.9-38.12-16.35-57.18c-2.03-7.11-4.2-14.47-9.05-20.06c-4.85-5.59-14.09-9.92-20.75-6.69"/>
	<path class="st0" d="M336.31,117.76c4.7,28.93,9.53,57.92,17.74,86.04c4.41,15.15,9.82,30.11,12.85,45.55
		c0.66,3.37,1.21,6.77,1.61,10.2c2.33,19.95-0.27,41.21,6.38,59.78"/>
	<path class="st0" d="M352.71,140.28c1.37,16.59,12.13,29.54,16.55,45.12c4.8,16.92,6.5,35.31,6.11,52.86
		c-0.24,10.75,0.22,27.03-4.59,36.97"/>
	<path class="st0" d="M363.57,171.02c3.38,22.61,3.68,52.87,3.33,78.32v0.01"/>
	<path class="st0" d="M368.04,155.42L368.04,155.42c8.17,21.04,14.03,48.11,15.41,67.55c1.24,17.57,0.68,35.2-0.36,52.79
		c0,0.01,0,0.01,0,0.02"/>
	<path class="st8" d="M370.85,159.64c26.58,3.09,47.3,23.23,65.78,42.22c7.52,7.72,15.03,15.45,22.55,23.17
		c10.62,10.92,21.24,21.83,31.86,32.74c12.1,12.44,24.38,25.11,32.39,40.41c8.13,15.52,11.29,32.33,11.75,49.65
		c0.01,0.01,0,0.02,0,0.03c0.56,20.25-2.58,41.2-5.8,61.63v0.01c-0.62,3.99-1.25,7.95-1.86,11.89c-3.81,24.75-6.47,49.66-7.99,74.64
		c0,0.01,0,0.01,0,0.01c-0.56,9.1-0.97,18.2-1.21,27.31c-0.84,30.27,0,60.59,2.52,90.77c-19.5-14.67-31.7-36.63-38.47-60.05
		c-0.95-3.28-1.8-6.58-2.53-9.9c-0.67-2.98-1.25-5.96-1.76-8.95c-1.45-8.57-2.34-17.2-2.9-25.86c-1.41-21.74-0.71-43.67-1.38-65.47
		c-0.95-30.49-4.91-61.84-20.18-88.42c-10.58-18.4-26.04-33.55-39.9-49.72c-10.54-12.29-20.43-25.75-26.07-40.65
		c-1.53-4.03-2.75-8.17-3.58-12.41"/>
	<path class="st9" d="M392.08,225.01c6.27,22.81,24.75,40.16,43.8,54.31c13.17,9.79,27.18,18.83,39.41,29.64
		c0.95,0.82,1.88,1.67,2.8,2.52c4.43,4.1,8.57,8.46,12.31,13.23c12.32,15.67,19.34,34.43,23.22,54.09
		c2.46,12.35,3.66,25.07,4.15,37.57c1.06,26.54-0.59,53.28,1.76,79.66c0,0.01,0,0.01,0,0.01"/>
	<path class="st10" d="M391.12,247.73c3.34,14.97,13.06,27.89,24.16,38.64c11.35,10.98,24.33,20.2,35.81,31.05
		c29.31,27.7,48.02,66.12,51.65,106.08c1.8,19.65,0.07,39.53,2.19,59.17c1.55,14.26,5.52,28.86,13.39,40.68"/>
	<path class="st0" d="M415.55,307.68c4.71,3.19,9.77,6.07,14.37,9.28c24.95,17.37,38.82,47.02,45.1,76.76
		c6.28,29.75,6.05,60.43,8.96,90.69c2.91,30.26,9.42,61.26,27.22,85.91"/>
	<path class="st0" d="M513.06,381.68c-7.21-7.37-12.93-16.32-17.57-25.58c-6.64-13.26-11.39-27.38-17.36-40.96
		c-0.2-0.46-0.4-0.92-0.61-1.38c-17.87-39.97-47.62-74.53-84.48-98.16"/>
	<path class="st11" d="M386.02,190.57c22.59,4.85,41.33,20.53,57.44,37.24c25.7,26.65,47.32,57.31,63.86,90.55
		c6.97,14,13.69,29.24,26.7,37.78"/>
	<path class="st12" d="M381.41,178.71c5.31-4.15,12.29-5.01,19.02-3.66c4.15,0.82,8.18,2.47,11.69,4.7
		c9.2,5.86,15.79,14.84,23.08,22.9c7.35,8.13,15.52,15.4,23.98,22.38c11.53,9.52,23.59,18.5,34.81,28.36
		c19.46,17.12,37.13,38.35,41.36,63.76c1.6,9.63,1.2,19.37,0.03,29.16c0,0.02,0,0.04-0.01,0.06c-0.06,0.48-0.12,0.97-0.19,1.46
		c0.01,0.01,0,0.02,0,0.03c-0.04,0.31-0.08,0.62-0.12,0.93c-0.32,2.44-0.69,4.89-1.07,7.33c-2.85,17.98-6.92,35.96-4.61,53.36
		c0,0.01,0,0.01,0,0.02"/>
	<path class="st0" d="M445.29,449.76c0-0.02-0.01-0.03-0.01-0.05c-0.86-21.38-2.92-42.61-7.67-63.18v-0.01c0-0.01,0-0.01,0-0.01
		c-2.57-11.11-5.93-22.03-10.31-32.66c-11.59-28.13-29.94-53.05-42.08-80.93"/>
	<path class="st0" d="M378.48,298.1C378.48,298.1,378.48,298.1,378.48,298.1c10.27,45.77,49.71,93.91,63.17,137.41
		c1.45,4.69,2.65,9.43,3.63,14.2c0,0.02,0.01,0.03,0.01,0.05c4.65,22.75,4.26,46.32,2.19,69.83c-0.36,4.14-0.77,8.28-1.22,12.41
		c-0.79,7.21-1.67,14.41-2.56,21.56"/>
	<path class="st0" d="M475.18,509.36c-7.62-16.73-13.67-34.8-14.87-48.65c-1.92-22.16-11.56-49.09-22.7-74.18v-0.01
		c0-0.01,0-0.01,0-0.01"/>
	<path class="st0" d="M442.22,547.81c-1.25-7.47-4.19-14.24-8.05-20.63v-0.01c-7.87-13.01-19.55-24.42-28.56-36.95
		c-5.81-8.08-10.56-16.93-14.5-26.28c0-0.01,0-0.01-0.01-0.02c-11.5-27.31-16.08-58.88-19.77-87.96"/>
	<path class="st0" d="M434.17,527.18v-0.01c-15.05-59.75-46.91-114.97-60.3-174.91"/>
	<path class="st13" d="M378.25,299.26c9.88,81.64,63.04,151.52,67.66,233.85"/>
	<path class="st14" d="M391.11,463.94c0-0.01,0-0.01-0.01-0.02c-12.61-16.15-21.76-34.42-26.91-52.04"/>
	<path class="st0" d="M360.18,426.95c10.55,34.32,28.18,68.62,51.46,95.77c8.59,10.02,17.96,19.41,25.76,30.06
		c7.8,10.64,14.07,22.83,15.39,35.97"/>
	<path class="st0" d="M355.14,442.41c3.75,20.25,14.43,42.11,27.08,57.68c13.74,16.92,29.59,32.12,42.32,49.8
		c11.62,16.13,20.67,35.03,21.37,54.75"/>
	<path class="st0" d="M443.5,601.17c-8.93-23.08-24.4-42.65-40.48-61.98c-0.08-0.1,2.73,2.8,2.64,2.7
		c-16.85-20.24-29.95-42.05-45.67-63.73"/>
	<path class="st0" d="M399,538c0.01,0.01,0.02,0.02,0.03,0.01c1.32,0.43,2.65,0.81,3.99,1.18c0.18,0.04,0.36,0.09,0.53,0.14h0.01"/>
	<path class="st0" d="M403.28,539c-1.43-0.3-2.84-0.63-4.25-0.99c-0.02,0.01-0.03,0-0.03-0.01c-24.5-6.14-47.01-20.08-63.31-39.39"
		/>
	<path class="st0" d="M332.96,516.41c10.81,22.55,34.48,35.54,56.84,46.74c22.36,11.2,46.25,23.33,58.35,45.21"/>
	<path class="st0" d="M328.41,536.84c4.17,13.13,15.49,22.85,27.7,29.24c12.21,6.39,25.62,10.12,38.21,15.71
		c21.4,9.5,40.34,24.46,54.55,43.06c-0.68-5.86-1.36-11.72-2.04-17.57"/>
	<path class="st0" d="M535.16,345.01c1.19,10.94,12.34,17.7,17.76,27.27c5.9,10.46,4.5,23.38,2.31,35.19
		c-6.98,37.76-20.07,74.05-33.57,110.04"/>
	<path class="st15" d="M535.4,486.82c0,0,0,0,0-0.01"/>
	<path class="st15" d="M535.19,362.8c6.06,36.68,6.68,75,2.01,111.59"/>
	<path class="st0" d="M551.79,423.93c13.3,15.32,18.48,37.33,13.38,56.96c-3.27,12.64-10.36,23.88-16.5,35.4
		c-6.14,11.51-11.51,24.07-10.86,37.11"/>
	<path class="st0" d="M545.94,446.47v0.01c0.97,17.01-4.89,34.19-15.57,47.43"/>
	<path class="st0" d="M446.26,532c9.73,10.46,22.37,18.17,36.11,22.07"/>
	<path class="st0" d="M447.48,519.59c8.75,10.5,19.91,18.97,32.36,24.58"/>
	<path class="st0" d="M253.16,187.79c-3.34-12.15-4.08-25.26-0.28-37.27c3.8-12.01,12.51-23.26,24.24-27.87
		c6.28-2.47,14.25-2.79,19,2.01c3.33,3.37,4.23,8.36,5.14,13.01c5.22,26.62,15.89,52.16,31.17,74.58"/>
	<path class="st0" d="M263.33,187.57c-6.09-8.81-8.76-19.91-7.34-30.52c1.42-10.61,6.66-21,14.84-27.89
		c5.06-4.27,11.91-7.44,18.21-5.43c3.49,1.11,6.36,3.7,8.47,6.69c2.11,2.99,3.55,6.4,4.97,9.78c10.02,23.84,20.05,47.68,30.07,71.52
		"/>
	<path class="st0" d="M269.37,187.57c-3.22-6.68-4.37-14.34-3.27-21.67c1.1-7.33,8.04-19.83,9.5-20.39"/>
	<path class="st0" d="M272.7,187.73c-5.9-12.46-4.39-28.11,3.78-39.21"/>
	<path class="st0" d="M275.76,187.06c-3.42-10.79-2.55-22.88,2.37-33.07"/>
	<path class="st0" d="M278.13,144.76c8.81,19.8,9.74,43.12,6.99,64.62s-8.55,42.5-11.79,63.93
		c-10.89,71.95,8.55,148.01,52.63,205.91"/>
	<path class="st0" d="M283.23,160.09c-3.57,43.09-13.66,85.38-16.82,128.51c-2.67,36.52-0.01,73.81,11.84,108.46
		c6.84,20.03,16.91,39.14,30.01,55.73c0.01,0.01,0.01,0.01,0.01,0.02c8,10.13,17.13,19.33,27.34,27.2"/>
	<path class="st0" d="M323.51,442.05L323.51,442.05c1.41-15.33-2.27-30.77-7.41-45.32c-5.32-15.09-12.24-29.6-17.07-44.86
		c-11.94-37.77-10.74-79.13-9.68-119.06c0.8-30.36,1.38-60.76-4.31-90.33"/>
	<path class="st0" d="M328.3,464.6c-1.09-7.65-2.75-15.15-4.79-22.56c-9.26-33.67-26.47-65.34-35.18-99.37
		c-9.05-35.41-8.84-75.43,1.02-110.61"/>
	<path class="st0" d="M286.24,427.11c-6.92,20.15-6.73,42.67,0.55,62.7c7.26,19.99,21.52,37.35,39.71,48.36
		c0.14,0.09,0.28,0.18,0.42,0.26c-0.27,2.04-0.27,2.16-0.27,2.29c6.44-19.41,9.05-40.01,8.96-60.71
		c-0.05-15.01-1.52-30.08-3.97-44.79c-5.82-34.97-16.87-68.85-23.95-103.59c-11.21-55.03-12.36-115.85-11.09-171.99"/>
	<path class="st0" d="M289.95,433.83c-5.08,18.34-2.79,38.28,4.18,56.01c7.14,18.16,18.95,34.17,32.37,48.33"/>
	<path class="st0" d="M328.19,533.11c-25.01-21.68-37.69-56.71-32.38-89.38"/>
	<path class="st16" d="M259.41,321.47c2.26,2.66,3.11,6.34,2.78,9.82c-0.34,3.48-1.77,6.77-3.64,9.72
		c-0.83,1.32-1.93,2.69-3.48,2.89c-1.87,0.24-3.47-1.34-4.47-2.94c-2.17-3.47-3.1-7.69-2.98-11.76
		C250.54,325.57,254.6,322.86,259.41,321.47z"/>
	<path class="st0" d="M306.04,460.5c-1.87,24.31,5.07,49.2,19.24,69.04"/>
	<path class="st0" d="M299.57,273.53c10.6-26.61,14.6-59.27,9.56-87.47"/>
	<path class="st0" d="M325.41,483.68c-34.69-39.36-58.68-88.06-68.75-139.55c-4.06-47.29,5.1-94.87,15.58-141.24
		c1.55-11.26,6.36-21.68,7.37-32.73c0.78-8.49-0.57-17.28-3.93-24.49c-0.04-0.09-0.01-0.2,0.07-0.25c4.19-2.71,9.19-5.33,13.6-1.56
		c1.28,1.09,2.2,2.54,2.81,4.11c5.39,13.74,10.13,27.99,18.43,40.22c8.44,12.44,20.44,22.64,25.7,35.85
		c8.52,16.9,11.25,36.19,11.22,55.12c-0.03,18.92-2.68,37.73-4.36,56.58c-2.48,27.76-2.85,55.69-1.84,83.54
		c0.38,10.53,0.97,21.15,3.59,31.36c2.61,10.21,7.4,20.1,15.1,27.3"/>
	<path class="st0" d="M320.31,201c0.4,33.49-5.84,68.55-17.79,99.83"/>
	<path class="st0" d="M308.24,334.28v-0.01c17.22-36.54,24.69-85.49,18.94-125.24"/>
	<path class="st0" d="M310.83,346c14.95-36.08,24.06-99.66,25.33-122.25"/>
	<path class="st17" d="M314.57,359.93c19.53-33.31,30.09-71.9,30.25-110.58"/>
	<path class="st0" d="M317.95,374.26c7.78-17.47,19.76-46.04,28.09-67.79"/>
	<path class="st0" d="M325.63,403.34c7.1-8.76,13.09-22.23,15.41-33.27"/>
	<path class="st18" d="M224.99,306.34c1.45-8.96,9.1-16.16,17.84-18.59c8.74-2.43,18.26-0.61,26.4,3.4s15.08,10.07,21.57,16.41
		c-1.36,1.39-3.61,1.53-5.46,0.92c-1.85-0.61-3.42-1.84-5.03-2.92c-12.52-8.46-29.94-8.99-42.96-1.31
		c-2.09,1.24-4.12,2.68-6.47,3.31C228.54,308.19,225.71,307.8,224.99,306.34z"/>
	<path class="st7" d="M288.2,233.65"/>
	<path class="st7" d="M281.06,334.51c-2.39-3.85-5.32-7.45-9.08-9.97c-3.76-2.52-8.44-3.89-12.9-3.07c-3.79,0.7-7.17,2.92-9.89,5.65
		c-2.72,2.73-4.86,5.98-7.07,9.33c-0.43,0.91-2.05,2.07-1.29,2.73c5.49,4.8,14.06,6.47,21.67,6.45S278.16,341.81,281.06,334.51z"/>
	<path class="st7" d="M243.29,317.26c8.43-6.1,20.12-7.38,29.67-3.25"/>
	<path class="st7" d="M239.18,332.13c2.8-7.72,9.39-13.97,17.26-16.34c7.86-2.37,16.81-0.82,23.42,4.06"/>
	<path class="st7" d="M237.54,324.66c2.38,2.82,6.09,4.47,9.77,4.34"/>
	<path class="st7" d="M239.9,322.12c2.19,2.83,5.65,4.64,9.22,4.82"/>
	<path class="st7" d="M243.21,319.92c1.81,2.83,4.89,4.8,8.21,5.27"/>
	<path class="st7" d="M245.9,317.67c0.86,1.36,1.74,2.73,2.9,3.85c1.16,1.11,2.66,1.96,4.27,2.03"/>
	<path class="st7" d="M249.27,317.15c0.82,2.55,2.9,4.65,5.44,5.49"/>
	<path class="st7" d="M254.37,318.66c0.49,1.4,1.59,2.58,2.96,3.16"/>
	<path class="st7" d="M258.19,318.48c0.45,1.16,1.32,2.16,2.41,2.78"/>
	<path class="st7" d="M261.5,318.22c0,1.11,0.54,2.22,1.43,2.89"/>
	<path class="st7" d="M271.11,323.52c0.64-0.05,1.22-0.57,1.33-1.21"/>
	<path class="st7" d="M273,325.09c0.86-0.04,1.69-0.47,2.23-1.14"/>
	<path class="st7" d="M266.94,321.72c0.56-0.53,0.98-1.21,1.22-1.95"/>
	<path class="st7" d="M237.18,336.91c-1.07,1.5-2.13,3-3.2,4.51c-0.28,0.4-0.58,0.9-0.38,1.35c0.21,0.47,0.82,0.57,1.33,0.6
		c1.84,0.12,3.68,0.24,5.51,0.36"/>
	<path class="st19" d="M253.81,328.25c1.55-1.02,3.52,0.34,4.16,2.87s-0.16,5.8-1.7,6.88c-1.53,1.08-3.53-0.2-4.2-2.71
		C251.39,332.78,252.12,329.37,253.81,328.25z"/>
	<path class="st18" d="M271.76,270.22"/>
	<path class="st7" d="M185.55,266.91"/>
	<path class="st7" d="M161.38,429.29c-8.01,2.63-13.58,10.2-16.68,18.05c-3.14,7.95-4.4,16.53-7.47,24.51
		c-0.15,0.4-0.31,0.79-0.47,1.18c-2.59,6.35-6.2,12.32-8.83,18.61c-1.18,2.83-2.17,5.73-2.77,8.76
		c-2.11,10.61,0.73,21.52,0.96,32.34c0.08,3.77-0.15,7.49-0.65,11.16c-2.85,20.91-14.32,40.36-25.77,58.47
		c6.42-10.76,9.91-23.17,10.35-35.7c0.38-10.66-1.45-21.4-5.54-31.26c-0.02-0.07-0.05-0.14-0.08-0.2c-0.18-0.44-0.37-0.88-0.56-1.31
		c-2.02-4.55-4.52-8.98-6.89-13.44v-0.01c-2.37-4.47-4.61-8.97-6.11-13.65c0,0,0,0,0-0.01c-0.98-3.05-1.65-6.18-1.83-9.44
		c-0.9-16.34,10.68-30.89,12.49-47.15c1.33-11.9-2.67-23.95-1.04-35.81c2.19-15.98,14.21-28.91,27.37-38.24
		c5.74-4.06,11.8-7.67,17.84-11.31v-0.01c7.59-4.57,15.13-9.2,21.94-14.85"/>
	<path class="st7" d="M145.7,364.83v0.01c-2.05,5.8-5.34,11.26-8.92,16.31c-5.89,8.3-12.76,15.99-17.35,25.08
		c-10.52,20.83-7.71,45.86-14.49,68.19c-3.19,10.54-8.57,20.67-8.89,31.68c-0.14,4.8,0.7,9.56,0.93,14.35v0.01"/>
	<path class="st7" d="M153.73,388.42c-11.31,10.21-19.83,23.43-26.1,37.39c-7.61,16.98-12.12,35.16-16.59,53.22
		c-2.36,9.57-4.74,19.19-5.71,29c-0.89,9-0.6,18.13-0.9,27.18c0,0.09-0.01,0.18-0.01,0.28"/>
	<path class="st7" d="M110.05,566.67c2.7-5.38,4.16-11.55,4.7-17.57c0.98-10.96-0.53-22,0.06-32.98c0.71-13,4.34-25.64,8.05-38.12
		c7.6-25.61,16.41-52.38,35.71-70.64"/>
	<path class="st7" d="M182.88,508.46c-2.17,5.05-2.68,11.08-2.79,16.69c-0.51,25.76,3.11,51.46,3.08,77.23
		c-0.02,25.77-4.07,52.49-18.33,73.96c1.91-8.84,3.82-17.72,4.32-26.72c0,0,0,0,0-0.01c0.08-1.34,0.12-2.69,0.13-4.03
		c0.06-9.78-1.93-19.83-7.17-28.05c0,0,0,0,0-0.01c-0.32-0.5-0.65-0.99-0.99-1.47c-7.14-10.14-19.03-16.42-25.26-27.15
		c-7.73-13.33-5.24-30.89-10.4-45"/>
	<path class="st7" d="M162.12,617.53c0,0,0,0,0-0.01c1.63-5.93,2.25-11.97,0.96-18.01c-1.98-9.28-8.19-16.99-12.73-25.33
		c-6.7-12.32-9.84-26.22-12.9-39.92c-3.17-14.2-6.35-28.41-9.52-42.62"/>
	<path class="st7" d="M169.16,649.62c0,0,0,0,0-0.01c7.96-18.55,8.52-40.36,0.78-59.06c-0.65-1.58-1.36-3.14-2.1-4.68
		c-5.34-11.09-12.54-21.47-14.88-33.52c-0.9-4.65-1.04-9.36-0.98-14.11c0,0,0,0,0-0.01c0.11-7.79,0.77-15.63-0.5-23.31
		c-0.75-4.57-2.17-8.97-3.86-13.28v-0.01c-2.19-5.61-4.84-11.08-7.08-16.67c-1.54-3.83-2.9-7.85-3.78-11.93"/>
	<path class="st7" d="M147.62,501.64v-0.01c0.94-5.6,1.62-11.29,2.47-16.88c2.03-13.38,5.63-27.42,15.21-36.86"/>
	<path class="st7" d="M151.98,538.24c0,0,0,0,0-0.01c3.5-9.86,4.16-21.03,4.7-31.64c0.79-15.46,2.23-32.16,12.42-43.81"/>
	<path class="st7" d="M173.34,476.93c-7.47,21.03-7.03,43.94-6.51,66.26c0.34,14.23,0.68,28.45,1.01,42.68"/>
	<path class="st7" d="M104.51,535.41c-0.03,0.02-0.06,0.05-0.09,0.08c-9.66,8.79-16.65,20.58-19.64,33.27
		c-0.87,3.7-1.41,7.47-1.57,11.27c-0.82,19.2,7.87,38.58,22.75,50.74c-11.39-4.68-22.33-10.69-31.82-18.5
		c-1.63-1.33-3.22-2.72-4.76-4.17c-2.1-1.97-4.1-4.05-6-6.23c-6.34-7.28-11.43-15.64-14.55-24.72c-0.63-1.81-1.17-3.65-1.63-5.52
		c-4.5-18.26-0.69-37.71,6.47-55.1c7.15-17.39,17.5-33.25,26.76-49.62c2.77-4.9,5.46-9.89,7.93-14.98
		c5.78-11.9,10.38-24.32,12.1-37.38"/>
	<path class="st7" d="M88.36,451.93c0.25,9.47-1.72,19.17-4.74,28.2c-5.12,15.29-13.07,29.51-18.27,44.78
		c-3.48,10.23-5.57,20.87-6.35,31.62c-1.1,15.2,0.43,30.6,4.38,45.34c0,0.01,0,0.01,0.01,0.01c3.08,11.51,7.65,22.62,13.61,32.92
		c0,0.01,0,0.01,0,0.02"/>
	<polyline class="st7" points="48.83,577.15 48.82,577.14 48.83,577.14 	"/>
	<path class="st7" d="M59,556.53c10.55-16.73,25.07-31.6,31.87-49.73c0,0,0,0,0-0.01"/>
	<path class="st7" d="M84.78,568.76c-0.01,0-0.01,0,0,0.01v0.01c-7.27,13.11-10.82,28.4-10.64,43.49c0.01,0.89,0.03,1.77,0.07,2.65
		c0.28,6.72,1.24,13.36,2.79,19.88c0,0.01,0,0.01,0,0.02"/>
	<path class="st9" d="M222.12,540.98c-1.48,8.38-0.1,17.45,2.69,25.62c1.69,4.96,3.84,9.73,6.12,14.45
		c3.25,6.73,6.75,13.36,9.52,20.3c1.65,4.13,3.02,8.47,3.9,12.87c1.64,8.2,1.58,16.6-1.61,24.23c-0.32-8.91-5.54-16.75-12.34-22.77
		c-1.82-1.62-3.76-3.1-5.74-4.44c-9.37-6.32-20.12-10.39-29.46-16.76c-4.83-3.3-9.35-7.49-12.62-12.32v-0.01"/>
	<path class="st9" d="M180.98,556.25c4.15,6.83,10.1,12.79,16.19,18.08c9.67,8.4,20.32,16.12,27.14,26.96
		c2.79,4.43,4.84,9.31,6.09,14.39"/>
	<path class="st9" d="M197.47,535.67c-1.24,7.16-0.05,14.87,2.76,21.66c4.17,10.07,11.47,18.48,18.99,26.35
		c7.53,7.88,15.47,15.49,21.36,24.65c1.26,1.96,2.43,3.99,3.77,5.89"/>
	<path class="st9" d="M209.68,540.54c-1.02,10.96,3.61,22.46,10.94,30.96c3.08,3.57,6.56,6.72,10.31,9.55"/>
</g>
</svg>
