<?xml version="1.0" encoding="utf-8"?>
<!-- Generator: Adobe Adobe Illustrator 24.2.0, SVG Export Plug-In . SVG Version: 6.00 Build 0)  -->
<svg version="1.1" id="Layer_1" xmlns="http://www.w3.org/2000/svg" xmlns:xlink="http://www.w3.org/1999/xlink" x="0px" y="0px"
	 viewBox="0 0 595.28 841.89" style="enable-background:new 0 0 595.28 841.89;" xml:space="preserve">
<style type="text/css">
	.st0{stroke:#000000;stroke-width:0.8552;stroke-miterlimit:10;}
	.st1{fill:#E25C11;stroke:#E25C11;stroke-width:0.8552;stroke-miterlimit:10;}
	.st2{fill:#E25C14;stroke:#E25C16;stroke-width:0.8552;stroke-miterlimit:10;}
</style>
<path class="st0" d="M114.5,457.97v-265c0-8.01,6.49-14.5,14.5-14.5h0c8.01,0,14.5,6.49,14.5,14.5v265c0,8.01-6.49,14.5-14.5,14.5h0
	C120.99,472.47,114.5,465.98,114.5,457.97z"/>
<path class="st1" d="M185.5,457.97V193.42c0-7.83,6.02-14.6,13.84-14.94c8.31-0.37,15.16,6.26,15.16,14.49v83.73v181.27
	C214.43,476.85,185.59,477,185.5,457.97z"/>
<path class="st2" d="M267.5,457.97v-265c0-8.01,6.49-14.5,14.5-14.5h0c8.01,0,14.5,6.49,14.5,14.5v265c0,8.01-6.49,14.5-14.5,14.5h0
	C273.99,472.47,267.5,465.98,267.5,457.97z"/>
<path class="st0" d="M338.5,457.97v-265c0-8.01,6.49-14.5,14.5-14.5h0c8.01,0,14.5,6.49,14.5,14.5v265c0,8.01-6.49,14.5-14.5,14.5h0
	C344.99,472.47,338.5,465.98,338.5,457.97z"/>
</svg>
