<?xml version="1.0" standalone="no"?>
<!DOCTYPE svg PUBLIC "-//W3C//DTD SVG 20010904//EN"
 "http://www.w3.org/TR/2001/REC-SVG-20010904/DTD/svg10.dtd">
<svg version="1.0" xmlns="http://www.w3.org/2000/svg"
 width="350.000000pt" height="235.000000pt" viewBox="0 0 350.000000 235.000000"
 preserveAspectRatio="xMidYMid meet">

<g transform="translate(0.000000,235.000000) scale(0.100000,-0.100000)"
fill="#000000" stroke="none">
<path d="M0 1175 l0 -1175 1750 0 1750 0 0 444 0 445 -42 5 c-24 3 -115 10
-203 16 -88 6 -187 15 -220 20 -33 4 -143 14 -245 20 -102 7 -295 21 -430 31
-135 11 -342 26 -460 35 -342 23 -342 23 -347 45 -6 22 -23 26 -23 5 0 -8 8
-21 19 -28 16 -12 19 -30 22 -136 l4 -122 -26 0 c-15 0 -31 6 -37 13 -7 8 -10
168 -11 457 0 245 -4 498 -7 563 l-7 117 39 -1 c21 -1 53 -4 69 -8 l30 -7 -24
-13 c-19 -10 -25 -11 -31 -1 -5 7 -15 10 -24 7 -20 -8 -21 -53 -2 -60 8 -3
163 -5 343 -5 180 1 290 3 243 5 -51 2 -88 9 -93 16 -7 9 -10 9 -14 0 -3 -10
-56 -13 -214 -13 -202 0 -209 1 -209 20 0 12 9 22 23 25 12 3 150 4 307 3
l285 -3 3 -27 c3 -25 7 -28 40 -27 36 1 36 2 7 8 -65 14 -34 99 44 121 71 20
196 6 132 -15 -21 -6 -45 -39 -62 -82 l-10 -26 333 6 c183 4 438 7 566 7 l233
0 -3 68 -3 67 -100 0 c-55 -1 -201 -1 -325 -2 -124 -1 -247 -1 -275 0 -27 0
-115 0 -195 -2 -80 -2 -168 0 -196 4 -31 5 -64 3 -85 -4 -30 -9 -40 -8 -83 14
-27 14 -57 25 -67 25 -10 0 -20 4 -23 8 -3 5 -87 8 -188 8 -171 -1 -187 -3
-243 -26 -55 -23 -60 -28 -63 -59 -3 -30 -6 -33 -30 -27 -15 4 -53 9 -84 12
-55 6 -57 6 -64 -20 -3 -14 -6 -36 -5 -48 0 -13 4 -103 7 -200 l6 -178 -25 0
c-14 0 -29 -4 -32 -10 -4 -6 6 -10 23 -10 l29 0 6 -152 c4 -83 7 -208 7 -278
l0 -127 -59 -6 c-32 -3 -97 -3 -144 0 l-84 6 -7 76 c-4 42 -9 200 -11 351 -2
151 -5 331 -6 400 -1 69 -1 202 0 296 l1 171 68 16 c37 9 99 21 137 27 39 7
122 20 185 31 63 11 140 21 170 24 30 2 79 9 109 14 35 7 293 11 735 10 380
-1 646 -5 601 -9 -143 -14 -229 -19 -302 -20 -48 0 -73 -4 -73 -12 0 -8 30 -9
113 -3 61 4 139 9 172 11 130 7 322 24 365 32 28 6 -628 10 -1707 11 l-1753 1
0 -1175z m150 1116 l0 -49 -37 9 c-21 5 -41 9 -45 9 -5 0 -8 18 -8 40 l0 40
45 0 45 0 0 -49z m167 33 c44 -7 53 -19 53 -82 0 -28 -3 -32 -22 -28 -13 3
-44 8 -70 11 l-48 6 0 56 c0 52 1 55 23 50 12 -4 41 -9 64 -13z m413 0 c0 -13
-7 -15 -42 -9 -72 12 -79 24 -15 25 45 0 57 -3 57 -16z m150 -19 c0 -40 1 -39
-51 -23 -31 9 -39 16 -39 35 0 21 4 23 45 23 45 0 45 0 45 -35z m130 -19 l0
-54 -27 7 c-25 7 -28 13 -31 54 -3 46 -3 47 27 47 31 0 31 0 31 -54z m100 -10
c0 -59 -2 -64 -20 -59 -17 5 -20 14 -20 64 0 52 2 59 20 59 18 0 20 -7 20 -64z
m360 52 c-30 -5 -62 -12 -70 -15 -8 -3 -27 -5 -42 -4 -16 2 -28 -2 -28 -8 0
-11 -47 -25 -115 -35 -27 -4 -35 -2 -25 4 8 5 26 10 40 10 18 0 21 3 11 9 -16
10 -8 13 84 30 33 6 69 12 80 15 11 2 43 4 70 4 l50 0 -55 -10z m-952 -43 c31
-6 32 -8 32 -57 l0 -51 -42 7 c-22 4 -45 9 -50 12 -4 3 -8 28 -8 55 0 43 3 50
18 45 9 -2 32 -7 50 -11z m837 -15 c-11 -5 -33 -8 -50 -8 l-30 0 30 8 c17 4
39 8 50 8 l20 1 -20 -9z m-633 -26 c7 -5 12 -203 13 -504 l0 -175 -57 -3 -58
-3 0 296 0 295 23 1 22 0 -22 9 c-19 8 -23 17 -23 56 l0 46 48 -7 c26 -4 50
-9 54 -11z m541 9 c-7 -2 -19 -2 -25 0 -7 3 -2 5 12 5 14 0 19 -2 13 -5z m-46
-9 c-3 -3 -12 -4 -19 -1 -8 3 -5 6 6 6 11 1 17 -2 13 -5z m-1126 -31 l1 -28 8
30 c10 40 11 29 10 -105 -1 -63 2 -112 5 -109 3 4 6 37 6 75 0 77 17 157 30
148 5 -3 9 -160 9 -350 l0 -344 -49 0 -50 0 -7 58 c-7 58 1 447 12 580 7 70
23 100 25 45z m774 2 c22 -5 25 -11 25 -46 l0 -42 -37 7 c-21 3 -44 6 -50 6
-9 0 -13 16 -13 45 0 43 1 45 25 40 14 -3 36 -7 50 -10z m-617 -78 c3 112 22
101 24 -14 l2 -98 6 95 c3 52 8 79 10 60 l3 -35 4 33 c4 32 6 33 36 26 18 -3
33 -7 34 -8 1 -1 3 -148 3 -327 l1 -324 -70 -3 -70 -3 1 343 c1 189 4 307 8
263 l6 -80 2 72z m767 43 c1 0 2 -16 3 -35 3 -37 -3 -40 -45 -29 -19 5 -23 13
-23 44 l0 39 32 -10 c18 -5 33 -9 33 -9z m-462 -19 c4 -4 6 -142 5 -307 l-3
-299 -52 -3 -53 -4 0 317 0 317 48 -7 c26 -4 50 -10 55 -14z m557 -36 c0 -28
-3 -32 -20 -28 -15 4 -20 14 -20 38 0 28 3 32 20 28 15 -4 20 -14 20 -38z
m-252 -10 l32 -7 0 -269 0 -269 -50 0 -50 0 0 281 c0 262 1 280 18 275 9 -2
32 -7 50 -11z m160 -277 l2 -258 -35 0 -35 0 0 261 0 260 33 -3 32 -3 3 -257z
m93 -8 c0 -239 -1 -245 -21 -248 -20 -3 -20 0 -20 248 0 248 0 251 20 248 20
-3 21 -9 21 -248z m964 175 c44 -15 87 -33 95 -39 8 -7 23 -16 33 -19 35 -13
16 -26 -40 -29 -32 -1 -154 -2 -271 -2 -167 0 -215 3 -222 14 -11 18 -1 40 19
40 14 0 14 2 1 10 -11 7 -8 11 15 21 117 46 242 47 370 4z m105 4 c45 -12 80
-35 80 -51 0 -15 -35 -8 -75 17 -22 13 -49 25 -60 25 -11 0 -31 7 -45 15 -25
15 -24 15 15 11 22 -2 60 -10 85 -17z m-600 -149 c0 -5 -7 -7 -15 -4 -8 4 -12
10 -9 15 6 11 24 2 24 -11z m-468 -516 c2 -137 0 -178 -10 -182 -7 -2 -15 -2
-18 1 -3 2 -8 84 -11 181 -6 174 -6 176 15 176 21 0 21 -5 24 -176z m-82 -8
c0 -172 0 -174 -22 -180 -49 -13 -48 -16 -48 174 l0 180 35 0 35 0 0 -174z
m-140 -16 l0 -180 -45 0 -45 0 0 173 c0 96 3 177 7 180 3 4 24 7 45 7 l38 0 0
-180z m-150 -10 c0 -165 -1 -180 -17 -180 -10 0 -35 -3 -55 -6 l-38 -7 0 181
0 181 33 4 c17 2 42 5 55 5 l22 2 0 -180z m-179 78 c1 -51 2 -133 3 -183 l1
-89 -45 -8 c-25 -5 -51 -6 -57 -3 -10 3 -13 49 -13 184 l0 180 38 4 c20 2 45
4 55 5 15 2 17 -9 18 -90z m-183 -108 l2 -180 -24 0 c-13 0 -44 -3 -70 -6
l-46 -7 0 180 c0 99 3 183 7 186 3 4 34 7 68 7 l61 0 2 -180z m-212 -17 l6
-180 -54 -6 c-29 -2 -54 -4 -55 -3 -2 1 -4 83 -5 182 l-3 179 50 5 c28 3 51 5
53 4 1 -1 5 -82 8 -181z m181 -189 c-3 -3 -12 -4 -19 -1 -8 3 -5 6 6 6 11 1
17 -2 13 -5z m20 -91 c-2 -21 -4 -6 -4 32 0 39 2 55 4 38 2 -18 2 -50 0 -70z
m190 81 c-3 -3 -12 -4 -19 -1 -8 3 -5 6 6 6 11 1 17 -2 13 -5z m-400 -26 c-3
-8 -6 -5 -6 6 -1 11 2 17 5 13 3 -3 4 -12 1 -19z m340 16 c-3 -3 -12 -4 -19
-1 -8 3 -5 6 6 6 11 1 17 -2 13 -5z m210 0 c-3 -3 -12 -4 -19 -1 -8 3 -5 6 6
6 11 1 17 -2 13 -5z m-60 -186 c-2 -35 -3 -7 -3 62 0 69 1 97 3 63 2 -35 2
-91 0 -125z m196 175 c-7 -2 -19 -2 -25 0 -7 3 -2 5 12 5 14 0 19 -2 13 -5z
m797 -57 c17 -32 48 -50 37 -23 -3 9 -1 19 5 23 8 5 9 -6 5 -35 -3 -24 -7 -44
-9 -45 -1 -2 -22 -1 -45 2 l-43 4 0 55 c0 45 3 54 17 51 9 -2 24 -16 33 -32z
m-1483 -38 c-2 -13 -4 -5 -4 17 -1 22 1 32 4 23 2 -10 2 -28 0 -40z m820 -25
c-2 -16 -4 -5 -4 22 0 28 2 40 4 28 2 -13 2 -35 0 -50z m1023 20 c-14 -3 -28
-10 -32 -17 -5 -7 -8 -7 -8 0 0 17 12 24 39 23 l26 -2 -25 -4z m-4 -50 c-11
-11 -19 6 -11 24 8 17 8 17 12 0 3 -10 2 -21 -1 -24z m-1839 5 c-3 -8 -6 -5
-6 6 -1 11 2 17 5 13 3 -3 4 -12 1 -19z m1773 2 c41 -11 -95 -2 -175 11 -36 6
-23 7 45 3 52 -3 111 -9 130 -14z m-111 -16 c10 -9 -86 -3 -99 6 -10 7 2 8 40
4 30 -4 57 -8 59 -10z m273 -4 c2 -5 40 -12 86 -16 45 -4 80 -9 78 -11 -3 -3
-52 -2 -110 2 -75 5 -106 11 -110 21 -4 10 3 14 23 14 16 0 31 -4 33 -10z
m-1935 -52 c-2 -13 -4 -5 -4 17 -1 22 1 32 4 23 2 -10 2 -28 0 -40z m1858 32
c0 -18 -33 -26 -47 -12 -6 6 -7 15 -3 22 10 16 50 8 50 -10z m1063 -3 c5 -24
-15 -21 -21 4 -3 13 -1 19 6 16 7 -2 13 -11 15 -20z m-58 9 c0 -3 -4 -8 -10
-11 -5 -3 -10 -1 -10 4 0 6 5 11 10 11 6 0 10 -2 10 -4z m-542 -13 c-16 -2
-40 -2 -55 0 -16 2 -3 4 27 4 30 0 43 -2 28 -4z m553 -30 c-10 -17 -10 -16
-11 3 0 23 13 41 18 25 2 -6 -1 -18 -7 -28z m-133 20 c-10 -2 -28 -2 -40 0
-13 2 -5 4 17 4 22 1 32 -1 23 -4z m-95 -10 c-7 -2 -21 -2 -30 0 -10 3 -4 5
12 5 17 0 24 -2 18 -5z m180 0 c-7 -2 -21 -2 -30 0 -10 3 -4 5 12 5 17 0 24
-2 18 -5z m-105 -10 c-10 -2 -26 -2 -35 0 -10 3 -2 5 17 5 19 0 27 -2 18 -5z
m245 0 c-7 -2 -21 -2 -30 0 -10 3 -4 5 12 5 17 0 24 -2 18 -5z m105 -10 c-10
-2 -26 -2 -35 0 -10 3 -2 5 17 5 19 0 27 -2 18 -5z m-183 -33 c0 -22 -39 -19
-43 3 -3 15 1 18 20 15 12 -2 23 -10 23 -18z m182 14 c-3 -3 -12 -4 -19 -1 -8
3 -5 6 6 6 11 1 17 -2 13 -5z m96 -11 c-13 -2 -33 -2 -45 0 -13 2 -3 4 22 4
25 0 35 -2 23 -4z m-1742 -29 c0 -5 -7 -11 -16 -12 -24 -5 -65 7 -65 19 0 13
80 6 81 -7z m-1461 -38 c0 -2 -7 -7 -16 -10 -8 -3 -12 -2 -9 4 6 10 25 14 25
6z"/>
<path d="M1268 2293 c7 -3 16 -2 19 1 4 3 -2 6 -13 5 -11 0 -14 -3 -6 -6z"/>
<path d="M81 2061 c-1 -41 1 -72 3 -70 9 9 13 105 6 124 -6 13 -9 -5 -9 -54z"/>
<path d="M320 2151 c0 -25 6 -27 13 -6 4 8 2 17 -3 20 -6 4 -10 -3 -10 -14z"/>
<path d="M293 2125 c-3 -9 -3 -18 -1 -21 3 -3 8 4 11 16 6 23 -1 27 -10 5z"/>
<path d="M1743 1973 c9 -2 25 -2 35 0 9 3 1 5 -18 5 -19 0 -27 -2 -17 -5z"/>
<path d="M2070 1938 c0 -4 12 -8 27 -8 14 0 23 3 19 7 -10 10 -46 11 -46 1z"/>
<path d="M1980 860 c0 -5 7 -10 16 -10 8 0 12 5 9 10 -3 6 -10 10 -16 10 -5 0
-9 -4 -9 -10z"/>
<path d="M2230 2306 c-52 -6 -86 -14 -75 -17 24 -7 211 13 221 24 9 9 -25 7
-146 -7z"/>
<path d="M2615 2288 c-44 -5 -119 -16 -167 -24 -48 -9 -100 -13 -115 -10 -16
4 -64 0 -108 -9 -44 -8 -97 -15 -117 -15 -21 0 -38 -4 -38 -9 0 -9 45 -6 139
10 71 12 118 11 123 -1 2 -6 22 -4 53 5 27 9 101 20 165 26 63 6 147 16 185
24 l70 13 -55 -1 c-30 0 -91 -4 -135 -9z"/>
<path d="M1856 2260 c-48 -10 -91 -21 -94 -24 -8 -9 17 -7 63 4 22 5 67 12
100 16 33 4 69 10 80 15 38 15 -56 8 -149 -11z"/>
<path d="M1690 2230 c-12 -8 -12 -10 5 -10 11 0 27 5 35 10 12 8 12 10 -5 10
-11 0 -27 -5 -35 -10z"/>
<path d="M2050 2180 c-19 -4 -98 -15 -175 -25 -77 -10 -144 -23 -150 -28 -6
-5 7 -7 35 -4 91 10 287 38 355 51 l70 14 -50 0 c-27 0 -66 -3 -85 -8z"/>
<path d="M1526 2159 c-88 -13 -82 -22 10 -15 91 6 160 25 89 24 -22 0 -67 -4
-99 -9z"/>
<path d="M2330 2151 c-30 -3 -50 -9 -44 -13 12 -8 163 7 172 17 6 6 -51 4
-128 -4z"/>
<path d="M3440 2154 c-184 -27 -221 -34 -215 -44 3 -4 35 -2 72 5 38 7 98 16
136 20 37 3 67 11 67 16 0 9 -12 10 -60 3z"/>
<path d="M1308 2123 c-10 -2 -18 -9 -18 -15 0 -5 7 -7 16 -4 9 3 20 6 25 6 5
0 9 5 9 10 0 10 -3 11 -32 3z"/>
<path d="M2088 2123 c6 -2 18 -2 25 0 6 3 1 5 -13 5 -14 0 -19 -2 -12 -5z"/>
<path d="M3275 2080 c-4 -6 5 -10 20 -10 15 0 24 4 20 10 -3 6 -12 10 -20 10
-8 0 -17 -4 -20 -10z"/>
<path d="M1335 2050 c4 -6 11 -8 16 -5 14 9 11 15 -7 15 -8 0 -12 -5 -9 -10z"/>
<path d="M1680 1870 c30 -5 73 -8 95 -8 35 1 33 2 -15 8 -30 5 -73 8 -95 8
-35 -1 -33 -2 15 -8z"/>
<path d="M1520 1810 c0 -7 7 -18 15 -24 13 -9 16 -66 22 -358 l6 -346 51 -6
c101 -12 406 -37 645 -51 134 -9 348 -24 475 -36 127 -11 314 -24 415 -30 101
-5 221 -13 267 -17 l84 -8 0 117 0 117 -67 7 c-38 3 -122 14 -188 23 -66 9
-172 17 -235 17 -63 1 -149 6 -190 13 -41 6 -104 12 -140 12 -39 0 -71 5 -78
12 -15 15 -242 25 -242 12 0 -5 48 -10 107 -11 178 -4 155 -22 -75 -58 -112
-18 -188 -49 -222 -92 -12 -15 -18 -34 -15 -45 7 -21 -2 -22 -40 -8 -20 8 -26
15 -22 30 3 11 1 18 -4 14 -5 -3 -9 -14 -9 -25 0 -29 -51 -25 -92 8 -25 21
-28 22 -14 5 22 -26 10 -29 -22 -6 -12 8 -22 23 -22 33 0 19 66 71 90 71 7 0
55 14 107 30 52 17 124 34 161 39 37 5 53 9 35 10 -20 1 -42 11 -61 30 -30 31
-114 61 -177 64 -29 2 -35 6 -35 24 0 12 6 24 13 26 9 4 9 8 0 14 -7 5 -12 55
-14 138 l-3 130 34 3 c19 2 74 -4 123 -14 99 -19 431 -24 747 -12 96 3 153 3
125 -1 l-50 -8 47 -1 c26 -1 50 -7 53 -12 5 -8 -40 -10 -142 -7 -81 3 -157 1
-168 -4 -11 -4 139 -8 333 -7 201 0 352 4 352 9 0 5 -16 9 -35 9 -19 0 -35 5
-35 10 0 6 -17 11 -37 11 -26 1 -15 5 35 12 l72 10 0 65 0 65 -952 -8 c-524
-4 -964 -7 -977 -6 -13 0 -30 6 -37 12 -11 9 -14 8 -14 -1z m568 -55 c6 -14
10 -25 8 -25 -2 0 -11 11 -20 25 -9 14 -13 25 -8 25 5 0 14 -11 20 -25z m-465
-9 c55 -31 110 -43 235 -52 62 -4 105 -11 107 -18 2 -6 5 -66 8 -133 4 -116 3
-122 -17 -128 -20 -7 -20 -8 2 -12 20 -4 23 -10 20 -37 l-4 -33 91 1 c76 0 98
-4 140 -25 57 -28 73 -59 30 -59 -40 0 -256 -70 -290 -94 -52 -36 -207 -22
-279 25 -44 30 -45 30 -26 49 34 34 120 71 183 78 68 8 188 -6 225 -27 13 -7
26 -10 29 -7 3 3 -5 10 -18 15 -13 5 -43 17 -67 26 -33 13 -62 16 -126 13 -70
-4 -94 -10 -157 -40 -41 -20 -85 -45 -98 -56 l-24 -20 34 -18 34 -17 -27 -8
c-14 -4 -31 -10 -37 -14 -8 -4 -11 45 -11 164 0 145 2 171 15 171 8 0 15 5 15
10 0 6 -6 10 -14 10 -8 0 -16 15 -20 38 -7 47 -8 222 0 222 3 0 24 -11 47 -24z
m1640 -103 c-24 -2 -62 -2 -85 0 -24 2 -5 4 42 4 47 0 66 -2 43 -4z m-1248
-73 c-3 -5 -1 -11 5 -15 14 -8 13 -202 -1 -210 -6 -4 -12 -5 -13 -4 -2 2 -7
62 -11 133 -6 118 -5 129 9 117 9 -7 14 -17 11 -21z m-328 -417 c15 -6 13 -8
-12 -13 -17 -4 26 -9 100 -14 l131 -8 16 -29 17 -30 -47 6 c-26 3 -100 9 -164
14 -64 5 -121 12 -127 15 -18 11 -13 34 11 50 25 17 46 20 75 9z"/>
<path d="M1735 1500 c-30 -5 -34 -8 -15 -10 39 -4 84 1 100 11 18 10 -24 10
-85 -1z"/>
<path d="M1648 1493 c7 -3 16 -2 19 1 4 3 -2 6 -13 5 -11 0 -14 -3 -6 -6z"/>
<path d="M1755 1420 c-4 -6 12 -10 39 -10 25 0 46 5 46 10 0 6 -18 10 -39 10
-22 0 -43 -4 -46 -10z"/>
<path d="M1858 1423 c7 -3 16 -2 19 1 4 3 -2 6 -13 5 -11 0 -14 -3 -6 -6z"/>
<path d="M1672 1194 c10 -10 20 -15 24 -12 3 4 -5 12 -18 18 -22 12 -22 12 -6
-6z"/>
<path d="M1832 1169 c5 -15 86 -20 95 -6 2 4 -11 7 -31 7 -19 0 -42 3 -52 7
-12 4 -15 2 -12 -8z"/>
<path d="M1778 1163 c7 -3 16 -2 19 1 4 3 -2 6 -13 5 -11 0 -14 -3 -6 -6z"/>
<path d="M2903 1653 c9 -2 25 -2 35 0 9 3 1 5 -18 5 -19 0 -27 -2 -17 -5z"/>
<path d="M3463 1653 c9 -2 23 -2 30 0 6 3 -1 5 -18 5 -16 0 -22 -2 -12 -5z"/>
<path d="M2404 1632 c7 -12 66 -14 66 -2 0 5 -16 10 -36 10 -19 0 -33 -4 -30
-8z"/>
<path d="M2480 1628 c0 -4 62 -8 137 -8 75 0 134 2 132 4 -8 8 -269 12 -269 4z"/>
<path d="M2695 1601 c-42 -4 -53 -8 -38 -13 32 -9 148 3 131 13 -7 5 -17 8
-23 7 -5 -1 -37 -4 -70 -7z"/>
<path d="M2820 1601 c0 -4 138 -9 308 -10 176 -1 301 2 294 7 -17 11 -602 14
-602 3z"/>
<path d="M2130 1570 c0 -5 11 -10 25 -10 14 0 25 5 25 10 0 6 -11 10 -25 10
-14 0 -25 -4 -25 -10z"/>
<path d="M2798 1559 c-7 -5 29 -9 86 -9 55 0 97 3 94 6 -10 9 -165 12 -180 3z"/>
<path d="M2485 1549 c-5 -7 8 -9 39 -7 61 6 71 18 13 18 -25 0 -49 -5 -52 -11z"/>
<path d="M2708 1553 c12 -2 32 -2 45 0 12 2 2 4 -23 4 -25 0 -35 -2 -22 -4z"/>
<path d="M3050 1551 c35 -7 311 -2 319 5 2 2 -76 3 -175 3 -98 -1 -163 -5
-144 -8z"/>
<path d="M2820 1507 c0 -8 401 2 410 10 3 3 -88 3 -202 1 -115 -1 -208 -7
-208 -11z"/>
<path d="M3158 1483 c7 -3 16 -2 19 1 4 3 -2 6 -13 5 -11 0 -14 -3 -6 -6z"/>
<path d="M1280 1470 c0 -5 9 -10 21 -10 11 0 17 5 14 10 -3 6 -13 10 -21 10
-8 0 -14 -4 -14 -10z"/>
<path d="M3375 1470 c3 -5 18 -10 33 -10 21 0 24 2 12 10 -20 13 -53 13 -45 0z"/>
<path d="M2305 1413 c-14 -11 -16 -17 -7 -20 6 -3 12 -17 13 -31 l1 -27 13 30
c14 29 14 29 15 5 1 -24 1 -24 15 -6 15 19 15 19 15 -2 0 -29 20 -29 21 1 1
21 1 21 7 2 6 -19 8 -19 23 -4 13 13 14 19 3 33 -7 10 -17 15 -23 11 -6 -3
-11 -2 -11 3 0 5 -12 8 -27 6 -15 -1 -30 1 -33 6 -3 4 -14 1 -25 -7z"/>
<path d="M3240 1420 c0 -5 7 -10 15 -10 8 0 15 5 15 10 0 6 -7 10 -15 10 -8 0
-15 -4 -15 -10z"/>
<path d="M2520 1372 c0 -23 4 -42 8 -42 10 0 9 66 -1 76 -4 4 -7 -11 -7 -34z"/>
<path d="M2466 1384 c-12 -32 -7 -53 14 -51 16 1 20 8 20 34 0 35 -23 46 -34
17z"/>
<path d="M2072 1153 c-7 -2 -17 -14 -23 -26 -11 -20 -10 -20 17 3 16 14 31 26
33 28 7 4 -14 1 -27 -5z"/>
<path d="M1245 1010 c-7 -12 18 -24 37 -18 8 3 5 9 -9 16 -14 8 -24 9 -28 2z"/>
<path d="M1312 988 c5 -15 28 -23 28 -10 0 5 -7 13 -16 16 -10 4 -14 1 -12 -6z"/>
<path d="M1215 962 c12 -12 183 -28 172 -16 -4 4 -31 9 -60 11 -28 1 -68 5
-87 8 -23 4 -32 3 -25 -3z"/>
</g>
</svg>
